
<svg width="151px" height="50px" viewBox="0 0 151 50" version="1.1" xmlns="http://www.w3.org/2000/svg" xmlns:xlink="http://www.w3.org/1999/xlink">
    <!-- Generator: Sketch 49.1 (51147) - http://www.bohemiancoding.com/sketch -->
    <desc>Created with Sketch.</desc>
    <defs></defs>
    <g id="Assets" stroke="none" stroke-width="1" fill="none" fill-rule="evenodd">
        <g id="Artboard" transform="translate(-79.000000, -273.000000)" fill-rule="nonzero">
            <g id="moehl-logo-color" transform="translate(79.566162, 273.000000)">
                <path d="M0,12.776902 L15.4198782,12.776902 L20.4541185,33.4676298 L20.5522862,33.4676298 L25.5865266,12.776902 L41.0064047,12.776902 L41.0064047,47.9511393 L30.7415887,47.9511393 L30.7415887,25.3876741 L30.643421,25.3876741 L24.5343703,47.9511393 L16.4544146,47.9511393 L10.3453639,25.3876741 L10.2471962,25.3876741 L10.2471962,47.9511393 L0,47.9511393 L0,12.776902 Z M89.7982621,12.776902 L100.636982,12.776902 L100.636982,24.9950033 L110.78601,24.9950033 L110.78601,12.776902 L121.62473,12.776902 L121.62473,47.9511393 L110.78601,47.9511393 L110.78601,34.0088106 L100.636982,34.0088106 L100.636982,47.9511393 L89.7982621,47.9511393 L89.7982621,12.776902 Z M127.212736,12.776902 L138.048939,12.776902 L138.048939,38.9348148 L149.902058,38.9348148 L149.902058,47.9511393 L127.212736,47.9511393 L127.212736,12.776902 Z M76.661412,12.965686 C76.1076455,12.713974 73.9051654,11.9135298 72.1532497,11.9059784 C70.6429776,11.9059784 68.8809935,12.6611145 67.1190094,13.008477 C68.6922095,12.3238204 71.2068126,10.7858599 72.5635403,8.49528058 C74.7584691,4.82280225 73.9857132,0.357431064 73.4621522,0.0427910429 C72.9385912,-0.271848979 68.5512508,1.15535816 66.3764589,4.82531937 C65.6888987,6.0087169 65.2399408,7.31539828 65.0549709,8.67147899 C63.6680376,4.55598751 61.1660202,3.03564693 61.1660202,3.03564693 C60.4436067,2.60521938 60.1843433,2.79903763 60.0408675,2.90475668 C59.6597664,3.22296551 59.3682539,3.635074 59.1951151,4.10038876 C59.1342883,4.25577033 59.1425273,4.42970539 59.2177692,4.57864159 C59.2633675,4.64714548 59.3235333,4.70473272 59.3939676,4.74728864 C63.632798,7.14106993 64.2167698,11.1256712 64.2268383,13.0890249 C61.9186391,12.8222102 60.7758666,12.001629 58.8125128,11.9336667 C57.0505287,11.8732559 54.9235622,12.5956693 54.1633919,12.9782716 C47.8705914,16.1372574 43.8431992,22.5433283 43.8431992,30.182788 C43.8431992,37.8876928 47.7195642,44.427171 54.3244876,47.4779207 C54.3244876,47.4779207 58.1001678,49.3154184 61.1609859,48.3085703 C61.4276942,48.2296381 61.6992852,48.1682569 61.9740158,48.1248206 C62.9179358,48.0014817 63.9499551,48.1399233 63.8996127,49.0788091 C63.8744415,49.4865826 64.0456057,49.7584316 64.3350745,49.8112911 C64.7086333,49.8731046 65.086623,49.904253 65.4652614,49.9044245 C65.8103687,49.9058016 66.154908,49.8763178 66.4947636,49.8163253 C66.859746,49.7533973 66.942811,49.3833807 66.9277083,49.0788091 C66.8849172,48.2129198 67.7306696,48.0165844 68.6896924,48.1072007 C69.1686144,48.185702 69.6419761,48.295004 70.106831,48.4344264 C73.1777176,49.1241173 76.5531758,47.4552666 76.6916174,47.3898215 C82.9844178,44.4397566 86.9740533,37.8574874 86.9740533,30.182788 C86.9740533,22.5080886 83.0171404,15.9988158 76.661412,12.965686 Z" id="Shape" fill="#005535"></path>
                <path d="M59.6280598,10.8513051 C60.6011767,10.8513051 61.3900439,10.0624379 61.3900439,9.08932094 C61.3900439,8.11620398 60.6011767,7.32733682 59.6280598,7.32733682 C58.6549428,7.32733682 57.8660756,8.11620398 57.8660756,9.08932094 C57.8660756,10.0624379 58.6549428,10.8513051 59.6280598,10.8513051 Z" id="Shape" fill="#005535"></path>
                <path d="M52.9803454,30.5905615 C52.9803454,36.6593382 56.8038509,43.0754775 65.2513062,43.0754775 C73.4092927,43.0754775 77.9526946,36.0879519 77.9526946,30.5905615 C77.9526946,24.8011851 73.4092927,18.1031283 65.2513062,18.1031283 C57.6420519,18.1031283 52.9803454,24.8062193 52.9803454,30.5905615 Z" id="Shape" fill="#D21818"></path>
            </g>
        </g>
    </g>
</svg>