<?xml version="1.0" encoding="utf-8"?>
<!-- Generator: Adobe Illustrator 26.2.1, SVG Export Plug-In . SVG Version: 6.00 Build 0)  -->
<svg version="1.1" id="Ebene_1" xmlns="http://www.w3.org/2000/svg" xmlns:xlink="http://www.w3.org/1999/xlink" x="0px" y="0px"
	 viewBox="0 0 1700 750" style="enable-background:new 0 0 1700 750;" xml:space="preserve">
<style type="text/css">
	.st0{fill:#E30613;}
	.st1{fill:#164194;}
	.st2{fill:#646363;}
	.st3{fill:#636363;}
	.st4{fill:none;}
	.st5{font-family:'FFDINProforIIC';}
	.st6{font-size:80px;}
</style>
<g>
	<g>
		<path class="st0" d="M239.46,20.06c0-11.43,7.47-19.12,19.13-19.12c11.66,0,19.12,7.69,19.12,19.12v135.75
			c0,11.43-7.46,19.13-19.12,19.13c-11.66,0-19.13-7.7-19.13-19.13V20.06z"/>
		<path class="st0" d="M309.85,23.33c0-15.86,7.7-22.39,24.02-22.39c7.93,0,14.93,3.03,19.13,10.03l66.94,107.99h0.47v-99.6
			c0-12.36,6.99-18.42,18.42-18.42c11.44,0,18.43,6.06,18.43,18.42v131.78c0,15.16-6.53,23.79-22.62,23.79
			c-12.13,0-16.09-2.56-20.99-10.26L347.17,59.71h-0.46v96.8c0,12.36-7,18.43-18.43,18.43c-11.43,0-18.43-6.07-18.43-18.43V23.33z"
			/>
		<path class="st0" d="M518.07,36.15h-27.26c-10.96,0-19.82-5.6-19.82-16.09c0-10.49,8.86-16.09,19.82-16.09h92.78
			c10.96,0,19.83,5.6,19.83,16.09c0,10.5-8.86,16.09-19.83,16.09h-27.26v119.65c0,11.43-7.47,19.13-19.13,19.13
			c-11.66,0-19.13-7.7-19.13-19.13V36.15z"/>
		<path class="st0" d="M617.23,26.36c0-17.02,8.86-22.39,22.39-22.39h83.87c11.2,0,19.35,3.26,19.35,15.39s-8.15,15.39-19.35,15.39
			h-68.01v36.38h58.91c10.03,0,17.96,2.8,17.96,14.7s-7.93,14.7-17.96,14.7h-58.91v40.58h69.87c11.2,0,19.36,3.26,19.36,15.39
			s-8.16,15.39-19.36,15.39h-85.74c-13.52,0-22.39-5.36-22.39-22.39V26.36z"/>
		<path class="st0" d="M799.73,78.61h32.32c14.46,0,28.93-3.73,28.93-22.63c0-17.96-10.97-22.63-27.76-22.63h-33.49V78.61z
			 M761.48,26.36c0-17.02,8.86-22.39,22.39-22.39h57.75c45.49,0,57.61,24.95,57.61,46.65c0,18.19-10.72,36.15-28.92,40.35v0.47
			c19.59,2.8,23.09,17.03,23.09,34.05c0,19.36,5.13,26.59,5.13,34.52c0,8.86-9.1,14.93-17.96,14.93
			c-20.99,0-22.63-20.29-22.63-27.06c0-29.39-5.36-41.28-26.36-41.28h-31.85v49.21c0,11.43-7.46,19.13-19.12,19.13
			c-11.66,0-19.13-7.7-19.13-19.13V26.36z"/>
		<path class="st1" d="M1422.47,78.61h32.32c14.46,0,28.93-3.73,28.93-22.63c0-17.96-10.97-22.63-27.76-22.63h-33.49V78.61z
			 M1384.22,26.36c0-17.02,8.86-22.39,22.39-22.39h57.75c45.49,0,57.61,24.95,57.61,46.65c0,18.19-10.72,36.15-28.92,40.35v0.47
			c19.59,2.8,23.09,17.03,23.09,34.05c0,19.36,5.13,26.59,5.13,34.52c0,8.86-9.1,14.93-17.96,14.93c-21,0-22.63-20.29-22.63-27.06
			c0-29.39-5.36-41.28-26.36-41.28h-31.85v49.21c0,11.43-7.46,19.13-19.12,19.13c-11.66,0-19.13-7.7-19.13-19.13V26.36z"/>
		<path class="st1" d="M1012.67,74.64c34.98,7.93,43.86,28.69,43.86,48.28c0,30.32-22.86,52.95-69.05,52.95
			c-48.51,0-70.2-24.25-70.2-42.45c0-9.33,6.77-15.86,16.09-15.86c20.77,0,15.4,30.32,54.11,30.32c19.83,0,30.79-10.96,30.79-22.16
			c0-6.77-3.26-14.23-16.32-17.49l-43.15-10.96c-34.75-8.86-41.05-27.99-41.05-45.95C917.74,14,952.26,0,984.69,0
			c29.86,0,65.08,16.79,65.08,39.18c0,9.56-8.17,15.16-17.49,15.16c-17.73,0-14.46-24.96-50.15-24.96
			c-17.73,0-27.52,8.16-27.52,19.83s13.99,15.39,26.12,18.19L1012.67,74.64z"/>
		<path class="st1" d="M1111.55,80.93h29.76c15.39,0,26.82-9.33,26.82-23.79c0-16.79-11.9-23.79-30.79-23.79h-25.79V80.93z
			 M1073.3,26.36c0-17.02,8.86-22.39,22.39-22.39h52.62c32.18,0,58.08,15.86,58.08,53.18c0,30.56-21.23,53.18-58.32,53.18h-36.52
			v45.48c0,11.43-7.46,19.13-19.12,19.13c-11.66,0-19.13-7.7-19.13-19.13V26.36z"/>
		<path class="st1" d="M1290.45,145.08c34.75,0,34.79-27.05,34.79-59.24s-3.53-55.04-34.79-55.04s-34.79,22.86-34.79,55.04
			S1254.53,145.08,1290.45,145.08 M1290.45,0c55.05,0,73.05,36.62,73.05,85.83c0,47.35-15.67,90.03-73.05,90.03
			c-60.18,0-73.05-39.18-73.05-90.03C1217.4,36.62,1235.4,0,1290.45,0"/>
		<path class="st1" d="M1572.89,36.15h-27.26c-10.96,0-19.82-5.6-19.82-16.09c0-10.49,8.86-16.09,19.82-16.09h92.78
			c10.96,0,19.82,5.6,19.82,16.09c0,10.5-8.86,16.09-19.82,16.09h-27.26v119.65c0,11.43-7.47,19.13-19.13,19.13
			c-11.66,0-19.13-7.7-19.13-19.13V36.15z"/>
		<path class="st1" d="M1681.33,18.9v-6.05h4.93c1.03,0,1.87,0.03,2.74,0.54c0.95,0.54,1.38,1.36,1.38,2.35
			c0,0.81-0.31,1.63-1.01,2.22c-0.98,0.86-2.08,0.94-3.4,0.94H1681.33z M1693.05,27.96l-3.89-7.85c2.3-0.54,3.69-2.35,3.69-4.35
			c0-1.43-0.78-2.84-2.1-3.7c-1.33-0.86-2.88-1.03-4.49-1.03h-7.41v16.94h2.48v-7.33h5.01l3.66,7.33H1693.05z"/>
		<path class="st1" d="M1685.1,7.67c-6.78,0-12.3,5.52-12.3,12.3c0,6.78,5.52,12.29,12.3,12.29c6.78,0,12.3-5.52,12.3-12.29
			C1697.39,13.18,1691.88,7.67,1685.1,7.67 M1685.1,34.87c-8.22,0-14.9-6.69-14.9-14.9c0-8.22,6.69-14.9,14.9-14.9
			c8.21,0,14.9,6.69,14.9,14.9C1700,28.18,1693.31,34.87,1685.1,34.87"/>
		<path class="st0" d="M0,39.72c0-20.77,16.84-37.6,37.6-37.6s37.6,16.84,37.6,37.6s-16.84,37.6-37.6,37.6S0,60.49,0,39.72"/>
		<path class="st1" d="M37.64,173.29c-5.14,0-9.31-4.54-9.31-10.15v-61.62c0-5.6,4.02-10.15,9.31-10.15
			c59.16,0,63.85-80.07,148.84-80.07c5.14,0,9.31,4.54,9.31,10.15v60.99c0,5.6-4.17,10.15-9.31,10.15
			C128.52,92.6,124.92,173.29,37.64,173.29"/>
	</g>
	<g>
		<path class="st2" d="M797.86,322.56c-16.84,0-29.63-3.59-40.54-14.66l14.03-14.03c7.02,7.02,16.53,9.35,26.82,9.35
			c12.79,0,19.65-4.83,19.65-13.72c0-3.89-1.09-7.17-3.43-9.35c-2.18-2.03-4.68-3.12-9.82-3.9l-13.41-1.87
			c-9.51-1.41-16.53-4.37-21.52-9.2c-5.3-5.3-7.95-12.47-7.95-21.83c0-19.8,14.66-33.68,38.67-33.68c15.28,0,26.35,3.74,35.86,12.94
			l-13.72,13.56c-7.02-6.7-15.44-7.64-22.76-7.64c-11.54,0-17.15,6.4-17.15,14.03c0,2.81,0.94,5.77,3.27,7.95
			c2.18,2.03,5.77,3.74,10.29,4.37l13.1,1.87c10.13,1.41,16.53,4.21,21.21,8.57c5.93,5.62,8.58,13.72,8.58,23.55
			C839.02,310.4,821.09,322.56,797.86,322.56z"/>
		<path class="st2" d="M858.82,321.63V210.6h21.68v111.02H858.82z"/>
		<path class="st2" d="M964.89,321.63l-21.68-44.28h-15.6v44.28h-21.67V210.6h43.51c22.61,0,36.02,15.44,36.02,33.99
			c0,15.6-9.51,25.27-20.27,29.16l24.79,47.87H964.89z M948.04,229.94h-20.43v29.31h20.43c9.51,0,15.75-6.08,15.75-14.66
			C963.79,236.02,957.55,229.94,948.04,229.94z"/>
		<path class="st2" d="M1075.3,310.4c-7.8,7.8-17.31,12.16-29.94,12.16c-12.63,0-22.3-4.37-30.1-12.16
			c-11.23-11.23-10.91-25.11-10.91-44.29c0-19.17-0.32-33.05,10.91-44.28c7.8-7.8,17.46-12.16,30.1-12.16
			c12.63,0,22.14,4.37,29.94,12.16c11.23,11.23,11.07,25.11,11.07,44.28C1086.37,285.29,1086.52,299.17,1075.3,310.4z
			 M1059.24,234.93c-3.12-3.59-7.95-5.93-13.88-5.93c-5.93,0-10.92,2.34-14.03,5.93c-4.22,4.67-5.31,9.82-5.31,31.18
			c0,21.37,1.09,26.51,5.31,31.19c3.12,3.58,8.11,5.92,14.03,5.92c5.93,0,10.76-2.34,13.88-5.92c4.21-4.68,5.45-9.83,5.45-31.19
			C1064.69,244.75,1063.44,239.61,1059.24,234.93z"/>
	</g>
</g>
<g>
	<path class="st3" d="M321.79,717.85h32.96v12.66H307.6v-72.66h14.19V717.85z"/>
	<path class="st3" d="M382.82,676.72c15.1,0,22.66,6.26,22.66,18.78v35h-12.96v-4.59c-1.77,1.77-3.62,3.06-5.56,3.88
		c-1.94,0.82-4.44,1.23-7.5,1.23c-5.92,0-10.44-1.56-13.57-4.7c-1.43-1.5-2.52-3.27-3.27-5.31c-0.75-2.04-1.12-4.25-1.12-6.63
		c0-2.11,0.37-4.1,1.12-5.97c0.75-1.87,1.87-3.5,3.37-4.9c1.5-1.39,3.4-2.5,5.71-3.32c2.31-0.82,5.03-1.22,8.16-1.22h12.35v-2.65
		c0-2.92-0.77-5.05-2.3-6.38c-1.53-1.33-4.07-1.99-7.6-1.99c-2.38,0-4.32,0.36-5.82,1.07c-1.5,0.71-2.96,1.89-4.39,3.52l-8.37-8.27
		c2.58-2.86,5.31-4.83,8.16-5.92C374.76,677.27,378.4,676.72,382.82,676.72z M382.1,708.06c-5.24,0-7.86,2.04-7.86,6.12
		c0,1.84,0.65,3.3,1.94,4.39c1.29,1.09,3.33,1.63,6.12,1.63c1.63,0,3.06-0.15,4.29-0.46c1.22-0.31,2.41-1,3.57-2.09
		c0.75-0.68,1.28-1.55,1.58-2.6c0.31-1.05,0.46-2.43,0.46-4.13v-2.86H382.1z"/>
	<path class="st3" d="M463.34,730.51h-12.96v-4.9c-1.77,1.84-3.81,3.21-6.12,4.13c-2.31,0.92-4.69,1.38-7.14,1.38
		c-5.24,0-9.42-1.56-12.55-4.69c-2.18-2.18-3.62-4.51-4.34-6.99c-0.71-2.48-1.07-5.19-1.07-8.11v-33.98h13.27v32.15
		c0,1.84,0.25,3.37,0.77,4.59c0.51,1.22,1.19,2.21,2.04,2.96c0.85,0.75,1.8,1.29,2.86,1.63c1.05,0.34,2.09,0.51,3.11,0.51
		c1.09,0,2.16-0.17,3.21-0.51c1.05-0.34,2.01-0.88,2.86-1.63c0.85-0.75,1.53-1.73,2.04-2.96s0.77-2.76,0.77-4.59v-32.15h13.27
		V730.51z"/>
	<path class="st3" d="M502.94,668.46h-5.2c-3.06,0-4.59,1.6-4.59,4.8v5.61h9.8v10.1h-9.8v41.54h-13.27v-41.54h-5.51v-10.1h5.51
		v-6.43c0-1.84,0.31-3.67,0.92-5.51s1.55-3.47,2.81-4.9c1.26-1.43,2.86-2.58,4.8-3.47c1.94-0.88,4.27-1.33,6.99-1.33h7.55V668.46z"
		/>
	<path class="st3" d="M530.39,676.72c4.22,0,8.01,0.44,11.38,1.33c3.37,0.89,6.34,2.52,8.93,4.9l-8.16,8.27
		c-1.57-1.36-3.42-2.3-5.56-2.81c-2.14-0.51-4.41-0.77-6.79-0.77c-2.65,0-4.58,0.51-5.77,1.53c-1.19,1.02-1.79,2.21-1.79,3.57
		c0,1.36,0.42,2.42,1.28,3.16c0.85,0.75,2.26,1.22,4.24,1.43l8.37,0.82c5.31,0.54,9.27,2.14,11.89,4.8
		c2.62,2.65,3.93,6.26,3.93,10.82c0,2.93-0.58,5.48-1.74,7.65c-1.16,2.18-2.76,3.98-4.8,5.41s-4.44,2.5-7.19,3.21
		c-2.76,0.71-5.7,1.07-8.83,1.07c-2.11,0-4.15-0.09-6.12-0.25c-1.97-0.17-3.9-0.53-5.77-1.07c-1.87-0.54-3.71-1.31-5.51-2.3
		c-1.8-0.99-3.56-2.33-5.26-4.03l8.67-8.67c1.09,1.09,2.25,1.96,3.47,2.6c1.23,0.65,2.47,1.16,3.73,1.53
		c1.26,0.37,2.48,0.61,3.67,0.71c1.19,0.1,2.3,0.15,3.32,0.15c1.16,0,2.3-0.1,3.42-0.31s2.13-0.53,3.01-0.97
		c0.88-0.44,1.6-1,2.14-1.68c0.54-0.68,0.82-1.53,0.82-2.55c0-1.36-0.39-2.47-1.17-3.32c-0.78-0.85-2.26-1.38-4.44-1.58l-8.37-0.82
		c-4.83-0.47-8.62-1.85-11.38-4.13c-2.76-2.28-4.13-5.87-4.13-10.77c0-2.79,0.56-5.24,1.68-7.35c1.12-2.11,2.62-3.88,4.49-5.31
		c1.87-1.43,4.05-2.5,6.53-3.21C525.07,677.08,527.67,676.72,530.39,676.72z"/>
	<path class="st3" d="M589.58,676.72c2.65,0,5.09,0.41,7.3,1.22c2.21,0.82,4.1,2.01,5.66,3.57c1.22,1.29,2.21,2.77,2.96,4.44
		c0.75,1.67,1.31,3.45,1.68,5.36c0.37,1.91,0.61,3.91,0.71,6.02c0.1,2.11,0.15,4.29,0.15,6.53s-0.05,4.44-0.15,6.58
		c-0.1,2.14-0.34,4.17-0.71,6.07c-0.37,1.91-0.94,3.69-1.68,5.36c-0.75,1.67-1.73,3.15-2.96,4.44c-1.57,1.57-3.44,2.76-5.61,3.57
		c-2.18,0.82-4.59,1.22-7.25,1.22c-2.79,0-5.2-0.39-7.25-1.17c-2.04-0.78-3.95-2.16-5.72-4.13V750h-13.27v-72.66h12.86v5
		c1.9-2.04,3.88-3.49,5.92-4.34C584.27,677.15,586.72,676.72,589.58,676.72z M585.7,688.67c-1.97,0-3.56,0.39-4.75,1.17
		c-1.19,0.78-2.09,1.85-2.7,3.21c-0.61,1.36-1.02,2.98-1.22,4.85c-0.2,1.87-0.31,3.86-0.31,5.97c0,2.18,0.1,4.2,0.31,6.07
		c0.2,1.87,0.61,3.49,1.22,4.85c0.61,1.36,1.51,2.43,2.7,3.21c1.19,0.78,2.77,1.17,4.75,1.17c2.04,0,3.66-0.39,4.85-1.17
		c1.19-0.78,2.09-1.85,2.7-3.21c0.61-1.36,1.02-2.98,1.22-4.85c0.2-1.87,0.31-3.89,0.31-6.07c0-2.11-0.1-4.1-0.31-5.97
		c-0.2-1.87-0.61-3.49-1.22-4.85c-0.61-1.36-1.52-2.43-2.7-3.21C589.36,689.06,587.74,688.67,585.7,688.67z"/>
	<path class="st3" d="M663.47,703.87c0,4.83-0.39,8.86-1.17,12.09c-0.78,3.23-2.4,6.11-4.85,8.62c-1.7,1.77-3.9,3.3-6.58,4.59
		c-2.69,1.29-6.01,1.94-9.95,1.94c-3.95,0-7.25-0.65-9.9-1.94c-2.65-1.29-4.83-2.82-6.53-4.59c-2.38-2.58-3.98-5.48-4.8-8.67
		c-0.82-3.2-1.22-7.21-1.22-12.04c0-4.83,0.41-8.83,1.22-11.99s2.41-6.04,4.8-8.62c1.7-1.77,3.88-3.3,6.53-4.59
		c2.65-1.29,5.95-1.94,9.9-1.94c3.94,0,7.26,0.65,9.95,1.94c2.69,1.29,4.88,2.82,6.58,4.59c2.38,2.59,3.98,5.46,4.8,8.62
		S663.47,699.04,663.47,703.87z M650.2,703.87c0-2.72-0.17-5.21-0.51-7.45c-0.34-2.25-1.19-4.05-2.55-5.41
		c-1.57-1.56-3.64-2.35-6.23-2.35c-2.52,0-4.56,0.78-6.12,2.35c-1.36,1.36-2.21,3.16-2.55,5.41c-0.34,2.25-0.51,4.73-0.51,7.45
		c0,2.79,0.17,5.31,0.51,7.55c0.34,2.25,1.19,4.05,2.55,5.41c1.56,1.57,3.61,2.35,6.12,2.35c2.58,0,4.66-0.78,6.23-2.35
		c1.36-1.36,2.21-3.16,2.55-5.41C650.03,709.18,650.2,706.66,650.2,703.87z"/>
	<path class="st3" d="M702.45,676.72c2.65,0,4.95,0.36,6.89,1.07c1.94,0.71,3.83,2.03,5.66,3.93l-9.9,10.1
		c-1.02-1.02-2.04-1.8-3.06-2.35c-1.02-0.54-2.35-0.82-3.98-0.82c-1.02,0-2.04,0.19-3.06,0.56c-1.02,0.37-1.96,0.97-2.81,1.79
		c-0.85,0.82-1.53,1.84-2.04,3.06s-0.77,2.69-0.77,4.39v32.05h-13.27v-53.17h12.96v5.1c1.29-1.56,3.13-2.91,5.51-4.03
		C696.98,677.29,699.6,676.72,702.45,676.72z"/>
	<path class="st3" d="M737.35,678.87h9.39v10.1h-9.39v25.51c0,3.2,1.53,4.8,4.59,4.8h4.8v11.23h-7.25c-2.72,0-5.05-0.44-6.99-1.33
		c-1.94-0.88-3.54-2.04-4.8-3.47c-1.26-1.43-2.18-3.04-2.76-4.85c-0.58-1.8-0.87-3.66-0.87-5.56v-26.33h-5.61v-10.1h5.61v-15.72
		h13.27V678.87z"/>
	<path class="st3" d="M826.04,730.51h-12.96v-4.9c-1.77,1.84-3.81,3.21-6.12,4.13c-2.31,0.92-4.69,1.38-7.14,1.38
		c-5.24,0-9.42-1.56-12.55-4.69c-2.18-2.18-3.62-4.51-4.34-6.99c-0.71-2.48-1.07-5.19-1.07-8.11v-33.98h13.27v32.15
		c0,1.84,0.26,3.37,0.77,4.59c0.51,1.22,1.19,2.21,2.04,2.96c0.85,0.75,1.8,1.29,2.86,1.63c1.05,0.34,2.09,0.51,3.11,0.51
		c1.09,0,2.16-0.17,3.21-0.51c1.05-0.34,2.01-0.88,2.86-1.63c0.85-0.75,1.53-1.73,2.04-2.96c0.51-1.22,0.77-2.76,0.77-4.59v-32.15
		h13.27V730.51z"/>
	<path class="st3" d="M867.17,676.72c5.37,0,9.56,1.57,12.55,4.69c2.18,2.18,3.62,4.51,4.34,6.99c0.71,2.48,1.07,5.19,1.07,8.11
		v33.98h-13.27v-32.15c0-1.84-0.25-3.37-0.77-4.59c-0.51-1.22-1.17-2.21-1.99-2.96c-0.82-0.75-1.75-1.29-2.81-1.63
		c-1.06-0.34-2.13-0.51-3.21-0.51c-1.09,0-2.16,0.17-3.21,0.51c-1.06,0.34-2.01,0.89-2.86,1.63c-0.85,0.75-1.53,1.73-2.04,2.96
		c-0.51,1.22-0.76,2.76-0.76,4.59v32.15h-13.27v-53.17h12.96v4.9c1.77-1.84,3.81-3.21,6.12-4.13
		C862.34,677.18,864.72,676.72,867.17,676.72z"/>
	<path class="st3" d="M941.77,730.51h-12.96v-5c-1.84,2.04-3.78,3.49-5.82,4.34c-2.04,0.85-4.49,1.28-7.35,1.28
		c-2.65,0-5.1-0.41-7.35-1.22s-4.12-2.01-5.61-3.57c-1.29-1.29-2.3-2.77-3.01-4.44c-0.71-1.67-1.26-3.45-1.63-5.36
		c-0.38-1.9-0.61-3.93-0.71-6.07c-0.1-2.14-0.15-4.34-0.15-6.58s0.05-4.42,0.15-6.53c0.1-2.11,0.34-4.12,0.71-6.02
		c0.37-1.9,0.92-3.69,1.63-5.36c0.71-1.67,1.72-3.15,3.01-4.44c1.5-1.56,3.35-2.76,5.56-3.57c2.21-0.82,4.64-1.22,7.3-1.22
		c2.72,0,5.12,0.39,7.19,1.17c2.08,0.78,4,2.16,5.77,4.13v-24.19h13.27V730.51z M919.42,688.67c-1.97,0-3.56,0.39-4.75,1.17
		c-1.19,0.78-2.09,1.85-2.7,3.21c-0.61,1.36-1.02,2.98-1.22,4.85c-0.2,1.87-0.31,3.86-0.31,5.97c0,2.18,0.1,4.2,0.31,6.07
		c0.2,1.87,0.61,3.49,1.22,4.85c0.61,1.36,1.51,2.43,2.7,3.21c1.19,0.78,2.77,1.17,4.75,1.17c1.97,0,3.55-0.39,4.75-1.17
		c1.19-0.78,2.11-1.85,2.76-3.21c0.65-1.36,1.07-2.98,1.28-4.85c0.2-1.87,0.31-3.89,0.31-6.07c0-2.11-0.1-4.1-0.31-5.97
		c-0.2-1.87-0.63-3.49-1.28-4.85c-0.65-1.36-1.57-2.43-2.76-3.21C922.97,689.06,921.39,688.67,919.42,688.67z"/>
	<path class="st3" d="M1003.31,730.51H992.9l-19.59-53.17h13.98l10.82,32.86l10.72-32.86h13.98L1003.31,730.51z"/>
	<path class="st3" d="M1044.03,668.25h-13.57v-10.82h13.57V668.25z M1043.93,730.51h-13.27v-51.64h13.27V730.51z"/>
	<path class="st3" d="M1079.24,676.72c3.67,0,6.96,0.63,9.85,1.89c2.89,1.26,5.32,3.03,7.3,5.31c1.97,2.28,3.47,5,4.49,8.17
		s1.53,6.62,1.53,10.36v5.61h-33.27c0,3.47,0.99,6.31,2.96,8.52c1.97,2.21,4.86,3.32,8.67,3.32c2.92,0,5.24-0.42,6.94-1.28
		c1.7-0.85,3.37-2.09,5-3.72l8.16,7.86c-1.36,1.36-2.72,2.57-4.08,3.62c-1.36,1.06-2.84,1.94-4.44,2.65
		c-1.6,0.71-3.35,1.24-5.26,1.58c-1.91,0.34-4.05,0.51-6.43,0.51c-3.2,0-6.26-0.41-9.18-1.22c-2.93-0.82-5.55-2.26-7.86-4.34
		c-2.31-2.08-4.15-4.86-5.51-8.37c-1.36-3.5-2.04-7.94-2.04-13.32c0-4.35,0.56-8.21,1.68-11.58c1.12-3.37,2.7-6.21,4.75-8.52
		c2.04-2.31,4.47-4.07,7.3-5.26C1072.62,677.32,1075.77,676.72,1079.24,676.72z M1079.24,687.75c-2.31,0-4.2,0.53-5.66,1.58
		c-1.46,1.06-2.57,2.37-3.32,3.93c-0.48,0.95-0.77,1.85-0.87,2.7c-0.1,0.85-0.19,1.85-0.26,3.01h20.11
		c-0.07-1.16-0.15-2.16-0.25-3.01c-0.1-0.85-0.39-1.75-0.87-2.7c-0.75-1.56-1.85-2.87-3.32-3.93
		C1083.33,688.27,1081.48,687.75,1079.24,687.75z"/>
	<path class="st3" d="M1127.41,714.49c0,1.57,0.36,2.75,1.07,3.57c0.71,0.82,1.92,1.22,3.62,1.22h5.1v11.23h-7.55
		c-2.72,0-5.07-0.42-7.04-1.28c-1.97-0.85-3.59-1.99-4.85-3.42c-1.26-1.43-2.18-3.06-2.75-4.9c-0.58-1.84-0.87-3.71-0.87-5.61
		v-57.46h13.27V714.49z"/>
	<path class="st3" d="M1167.31,676.72c3.67,0,6.96,0.63,9.85,1.89c2.89,1.26,5.32,3.03,7.3,5.31c1.97,2.28,3.47,5,4.49,8.17
		s1.53,6.62,1.53,10.36v5.61h-33.27c0,3.47,0.99,6.31,2.96,8.52c1.97,2.21,4.86,3.32,8.67,3.32c2.92,0,5.24-0.42,6.94-1.28
		c1.7-0.85,3.37-2.09,5-3.72l8.16,7.86c-1.36,1.36-2.72,2.57-4.08,3.62c-1.36,1.06-2.84,1.94-4.44,2.65
		c-1.6,0.71-3.35,1.24-5.26,1.58c-1.91,0.34-4.05,0.51-6.43,0.51c-3.2,0-6.26-0.41-9.18-1.22c-2.93-0.82-5.55-2.26-7.86-4.34
		c-2.31-2.08-4.15-4.86-5.51-8.37c-1.36-3.5-2.04-7.94-2.04-13.32c0-4.35,0.56-8.21,1.68-11.58c1.12-3.37,2.7-6.21,4.75-8.52
		c2.04-2.31,4.47-4.07,7.3-5.26C1160.69,677.32,1163.84,676.72,1167.31,676.72z M1167.31,687.75c-2.31,0-4.2,0.53-5.66,1.58
		c-1.46,1.06-2.57,2.37-3.32,3.93c-0.48,0.95-0.77,1.85-0.87,2.7c-0.1,0.85-0.19,1.85-0.26,3.01h20.11
		c-0.07-1.16-0.15-2.16-0.25-3.01c-0.1-0.85-0.39-1.75-0.87-2.7c-0.75-1.56-1.85-2.87-3.32-3.93
		C1171.41,688.27,1169.55,687.75,1167.31,687.75z"/>
	<path class="st3" d="M1220.79,676.72c4.22,0,8.01,0.44,11.38,1.33c3.37,0.89,6.34,2.52,8.93,4.9l-8.17,8.27
		c-1.57-1.36-3.42-2.3-5.56-2.81c-2.14-0.51-4.41-0.77-6.79-0.77c-2.65,0-4.58,0.51-5.77,1.53c-1.19,1.02-1.79,2.21-1.79,3.57
		c0,1.36,0.42,2.42,1.28,3.16c0.85,0.75,2.26,1.22,4.24,1.43l8.37,0.82c5.31,0.54,9.27,2.14,11.89,4.8s3.93,6.26,3.93,10.82
		c0,2.93-0.58,5.48-1.74,7.65c-1.16,2.18-2.75,3.98-4.8,5.41c-2.04,1.43-4.44,2.5-7.19,3.21c-2.76,0.71-5.7,1.07-8.83,1.07
		c-2.11,0-4.15-0.09-6.12-0.25c-1.97-0.17-3.9-0.53-5.77-1.07c-1.87-0.54-3.71-1.31-5.51-2.3c-1.8-0.99-3.56-2.33-5.26-4.03
		l8.67-8.67c1.09,1.09,2.25,1.96,3.47,2.6c1.22,0.65,2.47,1.16,3.73,1.53c1.26,0.37,2.48,0.61,3.67,0.71
		c1.19,0.1,2.3,0.15,3.32,0.15c1.16,0,2.3-0.1,3.42-0.31c1.12-0.2,2.13-0.53,3.01-0.97c0.88-0.44,1.6-1,2.14-1.68
		c0.54-0.68,0.82-1.53,0.82-2.55c0-1.36-0.39-2.47-1.17-3.32c-0.78-0.85-2.26-1.38-4.44-1.58l-8.37-0.82
		c-4.83-0.47-8.62-1.85-11.38-4.13c-2.75-2.28-4.13-5.87-4.13-10.77c0-2.79,0.56-5.24,1.68-7.35c1.12-2.11,2.62-3.88,4.49-5.31
		c1.87-1.43,4.05-2.5,6.53-3.21C1215.46,677.08,1218.06,676.72,1220.79,676.72z"/>
	<path class="st3" d="M1333.76,676.72c2.65,0,5.12,0.41,7.4,1.22c2.28,0.82,4.2,1.97,5.77,3.47c2.18,2.18,3.67,4.51,4.49,6.99
		c0.82,2.48,1.23,5.19,1.23,8.11v33.98h-13.27v-32.15c0-1.84-0.25-3.37-0.77-4.59c-0.51-1.22-1.17-2.21-1.99-2.96
		c-0.82-0.75-1.75-1.29-2.81-1.63c-1.06-0.34-2.13-0.51-3.21-0.51c-1.02,0-2.06,0.17-3.11,0.51c-1.06,0.34-2.01,0.87-2.86,1.58
		c-0.85,0.71-1.55,1.68-2.09,2.91c-0.55,1.22-0.82,2.69-0.82,4.39v32.45h-13.27v-32.15c0-1.84-0.25-3.37-0.77-4.59
		c-0.51-1.22-1.17-2.21-1.99-2.96c-0.82-0.75-1.75-1.29-2.81-1.63c-1.06-0.34-2.13-0.51-3.21-0.51c-1.09,0-2.16,0.17-3.21,0.51
		c-1.06,0.34-2.01,0.89-2.86,1.63c-0.85,0.75-1.53,1.73-2.04,2.96c-0.51,1.22-0.76,2.76-0.76,4.59v32.15h-13.27v-53.17h12.96v4.9
		c1.77-1.84,3.83-3.21,6.17-4.13c2.35-0.92,4.75-1.38,7.19-1.38c2.99,0,5.66,0.54,8.01,1.63c2.35,1.09,4.37,2.79,6.07,5.1
		c2.25-2.38,4.61-4.1,7.09-5.15C1327.52,677.25,1330.43,676.72,1333.76,676.72z"/>
	<path class="st3" d="M1387.44,676.72c3.67,0,6.96,0.63,9.85,1.89c2.89,1.26,5.32,3.03,7.3,5.31c1.97,2.28,3.47,5,4.49,8.17
		s1.53,6.62,1.53,10.36v5.61h-33.27c0,3.47,0.99,6.31,2.96,8.52c1.97,2.21,4.86,3.32,8.67,3.32c2.92,0,5.24-0.42,6.94-1.28
		c1.7-0.85,3.37-2.09,5-3.72l8.16,7.86c-1.36,1.36-2.72,2.57-4.08,3.62c-1.36,1.06-2.84,1.94-4.44,2.65
		c-1.6,0.71-3.35,1.24-5.26,1.58c-1.91,0.34-4.05,0.51-6.43,0.51c-3.2,0-6.26-0.41-9.18-1.22c-2.93-0.82-5.55-2.26-7.86-4.34
		c-2.31-2.08-4.15-4.86-5.51-8.37c-1.36-3.5-2.04-7.94-2.04-13.32c0-4.35,0.56-8.21,1.68-11.58c1.12-3.37,2.7-6.21,4.75-8.52
		c2.04-2.31,4.47-4.07,7.3-5.26C1380.82,677.32,1383.97,676.72,1387.44,676.72z M1387.44,687.75c-2.31,0-4.2,0.53-5.66,1.58
		c-1.46,1.06-2.57,2.37-3.32,3.93c-0.48,0.95-0.77,1.85-0.87,2.7c-0.1,0.85-0.19,1.85-0.26,3.01h20.11
		c-0.07-1.16-0.15-2.16-0.25-3.01c-0.1-0.85-0.39-1.75-0.87-2.7c-0.75-1.56-1.85-2.87-3.32-3.93
		C1391.54,688.27,1389.69,687.75,1387.44,687.75z"/>
	<path class="st3" d="M1453.78,730.51v-32.15c0-1.84-0.25-3.37-0.77-4.59c-0.51-1.22-1.19-2.21-2.04-2.96
		c-0.85-0.75-1.8-1.29-2.86-1.63c-1.06-0.34-2.09-0.51-3.11-0.51s-2.06,0.17-3.11,0.51c-1.06,0.34-2.01,0.89-2.86,1.63
		c-0.85,0.75-1.55,1.73-2.09,2.96c-0.55,1.22-0.82,2.76-0.82,4.59v32.15h-13.27v-72.66h13.27v24.39c1.7-1.84,3.64-3.21,5.82-4.13
		c2.18-0.92,4.56-1.38,7.14-1.38c2.65,0,5.03,0.41,7.14,1.22c2.11,0.82,3.91,1.97,5.41,3.47c2.18,2.18,3.62,4.51,4.34,6.99
		c0.71,2.48,1.07,5.19,1.07,8.11v33.98H1453.78z"/>
	<path class="st3" d="M1507.66,676.72c2.65,0,4.95,0.36,6.89,1.07c1.94,0.71,3.83,2.03,5.66,3.93l-9.9,10.1
		c-1.02-1.02-2.04-1.8-3.06-2.35c-1.02-0.54-2.35-0.82-3.98-0.82c-1.02,0-2.04,0.19-3.06,0.56c-1.02,0.37-1.96,0.97-2.81,1.79
		c-0.85,0.82-1.53,1.84-2.04,3.06c-0.51,1.22-0.76,2.69-0.76,4.39v32.05h-13.27v-53.17h12.96v5.1c1.29-1.56,3.13-2.91,5.51-4.03
		C1502.18,677.29,1504.8,676.72,1507.66,676.72z"/>
	<path class="st3" d="M1534.2,730.51h-15.1v-15.1h15.1V730.51z"/>
	<path class="st3" d="M1563.18,730.51h-15.1v-15.1h15.1V730.51z"/>
	<path class="st3" d="M1592.16,730.51h-15.1v-15.1h15.1V730.51z"/>
</g>
<rect x="239.44" y="414.48" class="st4" width="1419.35" height="228.13"/>
<text transform="matrix(1 0 0 1 350.8203 470.832)"><tspan x="0" y="0" class="st3 st5 st6">Marktgasse 66  I  8400 Winterthur</tspan><tspan x="-78.84" y="104" class="st3 st5 st6">Tel. 052 203 81 00  I  www.sirosport.ch</tspan></text>
</svg>
