<?xml version="1.0" encoding="UTF-8"?>
<svg id="Layer_2" data-name="Layer 2" xmlns="http://www.w3.org/2000/svg" xmlns:xlink="http://www.w3.org/1999/xlink" viewBox="0 0 639.71 91.3">
  <defs>
    <style>
      .cls-1 {
        fill: url(#Gradient_1);
      }
    </style>
    <linearGradient id="Gradient_1" data-name="Gradient 1" x1="0" y1="45.65" x2="228.6" y2="45.65" gradientUnits="userSpaceOnUse">
      <stop offset="0" stop-color="#157fff"/>
      <stop offset="1" stop-color="#28cabf"/>
    </linearGradient>
  </defs>
  <g id="Layer_1-2" data-name="Layer 1">
    <g>
      <path class="cls-1" d="m186.77,0c-12.48,0-24.2,5.04-33.14,13.15-.89.8-2.22.74-3.04-.13-7.53-8.05-18.35-13.02-30.77-13.02-13.21,0-25.59,5.62-34.71,14.59-.9.88-2.36.9-3.17-.06C74.38,5.59,63,0,49.82,0,24.61,0,2.38,20.44.18,45.65c-2.21,25.21,16.44,45.65,41.66,45.65,13.21,0,25.59-5.62,34.71-14.59.9-.88,2.36-.9,3.17.06,7.55,8.93,18.93,14.52,32.11,14.52,12.48,0,24.2-5.04,33.14-13.15.89-.8,2.22-.74,3.04.13,7.53,8.05,18.35,13.02,30.77,13.02,25.21,0,47.44-20.44,49.64-45.65S211.98,0,186.77,0Z"/>
      <g>
        <g>
          <path d="m301.41,10.75l-5.33,25.57c-.88,4.18-2.5,7.35-4.87,9.52-2.37,2.16-5.38,3.25-9.05,3.25-3.45,0-6.12-.89-8-2.67-1.89-1.78-2.83-4.28-2.83-7.51,0-1.28.17-2.66.49-4.12l.77-3.58c.88-4.03,2.44-7.12,4.67-9.27,2.24-2.15,5.04-3.22,8.42-3.22s5.61.94,6.93,2.8l2.26-10.78c.15-.62.36-1.04.63-1.27.28-.22.76-.33,1.46-.33h3.02c.59,0,.99.06,1.21.19.22.13.33.36.33.69v.22c0,.07-.04.24-.11.5Zm-11.83,25.3l.93-4.18c.22-1.06.33-2.02.33-2.86,0-3.15-1.59-4.73-4.79-4.73-1.91,0-3.41.6-4.51,1.79-1.1,1.19-1.94,3.11-2.53,5.75l-.93,4.23c-.22.99-.33,1.91-.33,2.75,0,3.15,1.58,4.73,4.73,4.73,1.87,0,3.37-.6,4.51-1.79,1.14-1.19,2-3.09,2.58-5.69Z"/>
          <path d="m310.54,21.59l-.44,2.15c1.83-2.82,4.49-4.23,7.97-4.23,1.17,0,1.76.37,1.76,1.1,0,.26-.02.44-.06.55l-.6,2.86c-.15.62-.33,1.04-.55,1.24-.22.2-.61.3-1.16.3h-.99c-4.44,0-7.13,2.24-8.08,6.71l-3.08,14.46c-.15.62-.36,1.05-.63,1.27-.28.22-.76.33-1.46.33h-3.13c-.88,0-1.32-.38-1.32-1.15,0-.26.04-.57.11-.94l5.33-25.14c.15-.62.36-1.04.63-1.27.28-.22.76-.33,1.46-.33h3.03c.88,0,1.32.38,1.32,1.15,0,.26-.04.57-.11.94Z"/>
          <path d="m328.74,43.53c1.17,0,2.16-.22,2.97-.66.81-.44,1.52-1.17,2.14-2.2.33-.62.95-.94,1.87-.94h2.97c.92,0,1.39.29,1.43.88,0,.81-.31,1.74-.94,2.81-.62,1.06-1.41,2-2.36,2.81-2.31,1.91-4.99,2.86-8.03,2.86-7.33,0-11.05-3.26-11.17-9.79,0-.77.04-1.52.11-2.25.07-.73.18-1.48.33-2.25l.61-3.14c.84-4.22,2.47-7.42,4.89-9.62,2.42-2.2,5.56-3.3,9.41-3.3,3.15,0,5.59.69,7.32,2.06,1.72,1.38,2.58,3.35,2.58,5.91,0,2.9-.99,5.16-2.97,6.79-1.98,1.63-4.71,2.45-8.19,2.45h-7.42c-.22.99-.33,2.13-.33,3.41.04,2.79,1.63,4.18,4.79,4.18Zm3.46-19.52c-3.56,0-5.89,2.33-6.99,6.98h5.83c1.72,0,3.05-.35,3.99-1.04.94-.7,1.4-1.69,1.4-2.97,0-1.98-1.41-2.97-4.23-2.97Z"/>
          <path d="m347.44,48.32h-3.08c-.88,0-1.32-.38-1.32-1.15,0-.26.04-.57.11-.94l5.33-25.14c.15-.62.36-1.04.63-1.27.28-.22.78-.33,1.51-.33h3.08c.88,0,1.32.38,1.32,1.15,0,.26-.04.57-.11.94l-5.33,25.13c-.15.62-.36,1.05-.63,1.27-.28.22-.78.33-1.51.33Zm6.54-39.88c2.27,0,3.41,1.01,3.41,3.02,0,.44-.06.92-.17,1.43-.51,2.2-1.87,3.3-4.07,3.3s-3.41-1.01-3.41-3.02c0-.48.05-.95.17-1.43.51-2.2,1.87-3.3,4.07-3.3Z"/>
          <path d="m361.14,41.17c.48,1.91,2.11,2.86,4.9,2.86,1.36,0,2.45-.31,3.27-.94.83-.62,1.24-1.47,1.24-2.53,0-.84-.36-1.58-1.07-2.2-.71-.62-2.06-1.41-4.04-2.36l-2.53-1.21c-3.23-1.5-4.84-3.8-4.84-6.88,0-2.79,1.04-5.01,3.11-6.68,2.07-1.67,4.83-2.5,8.28-2.5,2.05,0,3.88.3,5.47.91,1.6.6,2.85,1.44,3.77,2.5.92,1.06,1.38,2.27,1.38,3.63,0,.84-.13,1.38-.38,1.62-.26.24-.86.36-1.81.36h-2.92c-.48,0-.82-.08-1.02-.25-.2-.17-.36-.52-.47-1.07-.37-1.83-1.82-2.75-4.34-2.75-2.93,0-4.4,1.14-4.4,3.41,0,.81.25,1.45.74,1.92.5.48,1.44,1.03,2.83,1.65l2.53,1.1c4.25,1.83,6.38,4.35,6.38,7.54s-1.02,5.48-3.05,7.21c-2.04,1.72-4.89,2.58-8.55,2.58-3.34,0-6.01-.67-8.03-2.01-2.02-1.34-3.03-3.09-3.03-5.25,0-.84.13-1.38.38-1.62.26-.24.86-.36,1.82-.36h2.75c.51,0,.88.09,1.1.28.22.18.4.53.55,1.04Z"/>
          <path d="m392.1,43.53c1.17,0,2.16-.22,2.97-.66.81-.44,1.52-1.17,2.14-2.2.33-.62.95-.94,1.87-.94h2.97c.92,0,1.39.29,1.43.88,0,.81-.31,1.74-.94,2.81-.62,1.06-1.41,2-2.36,2.81-2.31,1.91-4.99,2.86-8.03,2.86-7.33,0-11.05-3.26-11.17-9.79,0-.77.04-1.52.11-2.25.07-.73.18-1.48.33-2.25l.61-3.14c.84-4.22,2.47-7.42,4.89-9.62,2.42-2.2,5.56-3.3,9.41-3.3,3.15,0,5.59.69,7.32,2.06,1.72,1.38,2.58,3.35,2.58,5.91,0,2.9-.99,5.16-2.97,6.79-1.98,1.63-4.71,2.45-8.19,2.45h-7.42c-.22.99-.33,2.13-.33,3.41.04,2.79,1.63,4.18,4.79,4.18Zm3.46-19.52c-3.56,0-5.89,2.33-6.99,6.98h5.83c1.72,0,3.05-.35,3.99-1.04.94-.7,1.4-1.69,1.4-2.97,0-1.98-1.41-2.97-4.23-2.97Z"/>
          <path d="m418.5,43.53c1.17,0,2.16-.22,2.97-.66.81-.44,1.52-1.17,2.14-2.2.33-.62.95-.94,1.87-.94h2.97c.92,0,1.39.29,1.43.88,0,.81-.31,1.74-.94,2.81-.62,1.06-1.41,2-2.36,2.81-2.31,1.91-4.99,2.86-8.03,2.86-7.33,0-11.05-3.26-11.17-9.79,0-.77.04-1.52.11-2.25.07-.73.18-1.48.33-2.25l.61-3.14c.84-4.22,2.47-7.42,4.89-9.62,2.42-2.2,5.56-3.3,9.41-3.3,3.15,0,5.59.69,7.32,2.06,1.72,1.38,2.58,3.35,2.58,5.91,0,2.9-.99,5.16-2.97,6.79-1.98,1.63-4.71,2.45-8.19,2.45h-7.42c-.22.99-.33,2.13-.33,3.41.04,2.79,1.63,4.18,4.79,4.18Zm3.46-19.52c-3.56,0-5.89,2.33-6.99,6.98h5.83c1.72,0,3.05-.35,3.99-1.04.94-.7,1.4-1.69,1.4-2.97,0-1.98-1.41-2.97-4.23-2.97Z"/>
          <path d="m444.57,21.59l-.17.71c1.87-2.38,4.33-3.57,7.37-3.57,2.46,0,4.42.73,5.88,2.2,1.47,1.47,2.2,3.45,2.2,5.94,0,.92-.11,1.87-.33,2.86l-3.63,16.99c-.15.62-.35,1.05-.61,1.27-.26.22-.75.33-1.49.33h-3.13c-.88,0-1.32-.38-1.32-1.15,0-.26.04-.57.11-.94l3.52-16.56c.11-.48.17-.94.17-1.38,0-1.17-.35-2.11-1.05-2.81-.7-.7-1.67-1.04-2.92-1.04-1.58,0-2.94.55-4.1,1.65-1.16,1.1-1.93,2.6-2.34,4.51l-3.41,16.11c-.15.62-.36,1.05-.63,1.27-.28.22-.76.33-1.46.33h-3.13c-.88,0-1.32-.38-1.32-1.15,0-.26.04-.57.11-.94l5.33-25.14c.15-.62.36-1.04.63-1.27.28-.22.76-.33,1.46-.33h3.03c.88,0,1.32.38,1.32,1.15,0,.26-.04.57-.11.94Z"/>
          <path d="m467.23,41.17c.48,1.91,2.11,2.86,4.9,2.86,1.36,0,2.45-.31,3.27-.94.83-.62,1.24-1.47,1.24-2.53,0-.84-.36-1.58-1.07-2.2-.71-.62-2.06-1.41-4.04-2.36l-2.53-1.21c-3.23-1.5-4.84-3.8-4.84-6.88,0-2.79,1.04-5.01,3.11-6.68,2.07-1.67,4.83-2.5,8.28-2.5,2.05,0,3.88.3,5.47.91,1.6.6,2.85,1.44,3.77,2.5.92,1.06,1.38,2.27,1.38,3.63,0,.84-.13,1.38-.38,1.62-.26.24-.86.36-1.81.36h-2.92c-.48,0-.82-.08-1.02-.25-.2-.17-.36-.52-.47-1.07-.37-1.83-1.82-2.75-4.34-2.75-2.93,0-4.4,1.14-4.4,3.41,0,.81.25,1.45.74,1.92.5.48,1.44,1.03,2.83,1.65l2.53,1.1c4.25,1.83,6.38,4.35,6.38,7.54s-1.02,5.48-3.05,7.21c-2.04,1.72-4.89,2.58-8.55,2.58-3.34,0-6.01-.67-8.03-2.01-2.02-1.34-3.03-3.09-3.03-5.25,0-.84.13-1.38.38-1.62.26-.24.86-.36,1.82-.36h2.75c.51,0,.88.09,1.1.28.22.18.4.53.55,1.04Z"/>
          <path d="m501.22,13.5l-1.26,6h4.89c.73,0,1.1.31,1.1.94,0,.29-.02.49-.06.6l-.5,2.31c-.15.62-.33,1.04-.55,1.24-.22.2-.6.3-1.15.3h-4.84l-2.97,13.81c-.15.77-.22,1.32-.22,1.65,0,1.54.97,2.31,2.92,2.31h2.42c.73,0,1.1.35,1.1,1.04,0,.22-.02.39-.05.5l-.55,2.58c-.15.66-.4,1.08-.77,1.27s-1.14.27-2.31.27h-.83c-2.9,0-5.03-.56-6.41-1.68-1.38-1.12-2.06-2.87-2.06-5.25,0-.51.03-1.07.08-1.68.06-.6.17-1.27.36-2.01l2.75-12.81h-2.86c-.77,0-1.16-.29-1.16-.88,0-.07,0-.17.03-.27s.05-.24.08-.39l.49-2.31c.15-.62.33-1.04.55-1.24.22-.2.6-.3,1.15-.3h2.81l1.38-6.49c.15-.62.37-1.04.66-1.27.29-.22.79-.33,1.48-.33h3.08c.88,0,1.32.38,1.32,1.15,0,.26-.04.57-.11.94Z"/>
          <path d="m525.37,48.32h-3.02c-.88,0-1.32-.38-1.32-1.15,0-.26.04-.57.11-.94l.05-.28c-1.14.92-2.24,1.58-3.3,1.98-1.06.4-2.25.6-3.58.6-2.93,0-5.21-.87-6.82-2.61-1.61-1.74-2.42-4.19-2.42-7.34,0-1.39.17-2.86.5-4.4l.55-2.53c1.94-8.62,6.33-12.92,13.15-12.92,1.72,0,3.18.31,4.37.94,1.19.62,2.03,1.5,2.5,2.64l.27-1.21c.15-.62.36-1.04.63-1.27.28-.22.76-.33,1.46-.33h3.08c.88,0,1.32.38,1.32,1.15,0,.26-.04.57-.11.94l-5.33,25.13c-.15.62-.35,1.05-.6,1.27-.26.22-.75.33-1.49.33Zm-2.04-12.98l.77-3.63c.22-.99.33-1.87.33-2.64,0-3.19-1.59-4.79-4.79-4.79-1.87,0-3.37.6-4.51,1.79-1.14,1.19-1.96,3.05-2.48,5.58l-.77,3.63c-.22.99-.33,1.91-.33,2.75,0,3.3,1.56,4.95,4.67,4.95,1.87,0,3.38-.62,4.54-1.87,1.15-1.25,2.01-3.17,2.56-5.77Z"/>
          <path d="m539.39,48.32h-3.08c-.88,0-1.32-.38-1.32-1.15,0-.26.04-.57.11-.94l4.51-21.34h-2.75c-.77,0-1.16-.29-1.16-.88,0-.07,0-.17.03-.27s.05-.24.08-.39l.5-2.31c.15-.62.33-1.04.55-1.24.22-.2.6-.3,1.16-.3h2.75l.49-2.09c.66-2.82,1.92-4.9,3.77-6.24,1.85-1.34,4.39-2.01,7.62-2.01h.93c1.25,0,2.04.07,2.39.22.35.15.52.46.52.94,0,.22-.04.51-.11.88l-.38,1.81c-.15.59-.33.99-.55,1.21-.22.22-.62.33-1.21.33h-1.59c-1.58,0-2.71.27-3.41.83-.7.55-1.27,1.61-1.71,3.19l-.22.94h4.78c.73,0,1.1.31,1.1.94,0,.26-.02.46-.05.6l-.5,2.31c-.15.62-.33,1.04-.55,1.24-.22.2-.6.3-1.15.3h-4.79l-4.62,21.83c-.15.62-.37,1.05-.66,1.27-.29.22-.79.33-1.48.33Z"/>
          <path d="m562.66,43.53c1.17,0,2.16-.22,2.97-.66.81-.44,1.52-1.17,2.14-2.2.33-.62.95-.94,1.87-.94h2.97c.92,0,1.39.29,1.43.88,0,.81-.31,1.74-.94,2.81-.62,1.06-1.41,2-2.36,2.81-2.31,1.91-4.99,2.86-8.03,2.86-7.33,0-11.05-3.26-11.17-9.79,0-.77.04-1.52.11-2.25.07-.73.18-1.48.33-2.25l.61-3.14c.84-4.22,2.47-7.42,4.89-9.62,2.42-2.2,5.56-3.3,9.41-3.3,3.15,0,5.59.69,7.32,2.06,1.72,1.38,2.58,3.35,2.58,5.91,0,2.9-.99,5.16-2.97,6.79-1.98,1.63-4.71,2.45-8.19,2.45h-7.42c-.22.99-.33,2.13-.33,3.41.04,2.79,1.63,4.18,4.79,4.18Zm3.46-19.52c-3.56,0-5.89,2.33-6.99,6.98h5.83c1.72,0,3.05-.35,3.99-1.04.94-.7,1.4-1.69,1.4-2.97,0-1.98-1.41-2.97-4.23-2.97Z"/>
          <path d="m592.08,13.5l-1.26,6h4.89c.73,0,1.1.31,1.1.94,0,.29-.02.49-.06.6l-.5,2.31c-.15.62-.33,1.04-.55,1.24-.22.2-.6.3-1.15.3h-4.84l-2.97,13.81c-.15.77-.22,1.32-.22,1.65,0,1.54.97,2.31,2.92,2.31h2.42c.73,0,1.1.35,1.1,1.04,0,.22-.02.39-.05.5l-.55,2.58c-.15.66-.4,1.08-.77,1.27s-1.14.27-2.31.27h-.83c-2.9,0-5.03-.56-6.41-1.68-1.38-1.12-2.06-2.87-2.06-5.25,0-.51.03-1.07.08-1.68.06-.6.17-1.27.36-2.01l2.75-12.81h-2.86c-.77,0-1.16-.29-1.16-.88,0-.07,0-.17.03-.27s.05-.24.08-.39l.49-2.31c.15-.62.33-1.04.55-1.24.22-.2.6-.3,1.15-.3h2.81l1.38-6.49c.15-.62.37-1.04.66-1.27.29-.22.79-.33,1.48-.33h3.08c.88,0,1.32.38,1.32,1.15,0,.26-.04.57-.11.94Z"/>
          <path d="m610.67,13.5l-1.26,6h4.89c.73,0,1.1.31,1.1.94,0,.29-.02.49-.06.6l-.5,2.31c-.15.62-.33,1.04-.55,1.24-.22.2-.6.3-1.15.3h-4.84l-2.97,13.81c-.15.77-.22,1.32-.22,1.65,0,1.54.97,2.31,2.92,2.31h2.42c.73,0,1.1.35,1.1,1.04,0,.22-.02.39-.05.5l-.55,2.58c-.15.66-.4,1.08-.77,1.27s-1.14.27-2.31.27h-.83c-2.9,0-5.03-.56-6.41-1.68-1.38-1.12-2.06-2.87-2.06-5.25,0-.51.03-1.07.08-1.68.06-.6.17-1.27.36-2.01l2.75-12.81h-2.86c-.77,0-1.16-.29-1.16-.88,0-.07,0-.17.03-.27s.05-.24.08-.39l.49-2.31c.15-.62.33-1.04.55-1.24.22-.2.6-.3,1.15-.3h2.81l1.38-6.49c.15-.62.37-1.04.66-1.27.29-.22.79-.33,1.48-.33h3.08c.88,0,1.32.38,1.32,1.15,0,.26-.04.57-.11.94Z"/>
          <path d="m625.58,43.53c1.17,0,2.16-.22,2.97-.66.81-.44,1.52-1.17,2.14-2.2.33-.62.95-.94,1.87-.94h2.97c.92,0,1.39.29,1.43.88,0,.81-.31,1.74-.94,2.81-.62,1.06-1.41,2-2.36,2.81-2.31,1.91-4.99,2.86-8.03,2.86-7.33,0-11.05-3.26-11.17-9.79,0-.77.04-1.52.11-2.25.07-.73.18-1.48.33-2.25l.61-3.14c.84-4.22,2.47-7.42,4.89-9.62,2.42-2.2,5.56-3.3,9.41-3.3,3.15,0,5.59.69,7.32,2.06,1.72,1.38,2.58,3.35,2.58,5.91,0,2.9-.99,5.16-2.97,6.79-1.98,1.63-4.71,2.45-8.19,2.45h-7.42c-.22.99-.33,2.13-.33,3.41.04,2.79,1.63,4.18,4.79,4.18Zm3.46-19.52c-3.56,0-5.89,2.33-6.99,6.98h5.83c1.72,0,3.05-.35,3.99-1.04.94-.7,1.4-1.69,1.4-2.97,0-1.98-1.41-2.97-4.23-2.97Z"/>
        </g>
        <g>
          <path d="m268.89,82.02l2.02-9.59c.72-3.45,2.59-5.17,5.61-5.17,1.35,0,2.4.35,3.15,1.06.75.7,1.12,1.7,1.12,2.99,0,.29-.01.58-.04.85s-.07.53-.13.78l-.22,1.06c-.34,1.61-.96,2.85-1.86,3.71-.9.86-2.03,1.29-3.38,1.29s-2.24-.37-2.77-1.12l-.92,4.36c-.06.25-.14.42-.25.51s-.3.13-.58.13h-1.25c-.35,0-.53-.15-.53-.46,0-.1.01-.23.04-.37Zm8.93-8.27l.29-1.32c.09-.4.13-.75.13-1.06,0-1.26-.64-1.89-1.91-1.89-.75,0-1.35.23-1.8.7-.45.47-.79,1.22-1.01,2.24l-.29,1.3c-.09.41-.13.79-.13,1.14,0,1.26.64,1.89,1.91,1.89.76,0,1.36-.24,1.8-.71.44-.48.78-1.24,1.01-2.3Z"/>
          <path d="m286.58,79.4c-1.38,0-2.45-.36-3.2-1.07-.76-.71-1.13-1.71-1.13-3,0-.51.07-1.06.2-1.65l.26-1.25c.72-3.45,2.59-5.17,5.61-5.17,1.36,0,2.42.35,3.16,1.06.74.7,1.11,1.7,1.11,2.99,0,.23-.01.49-.03.76-.02.27-.07.56-.14.87l-.29,1.36c-.35,1.67-1,2.94-1.94,3.81-.94.87-2.14,1.3-3.61,1.3Zm1.54-9.92c-.75,0-1.35.24-1.8.71-.46.48-.79,1.22-.99,2.23l-.37,1.76c-.09.4-.13.76-.13,1.08,0,1.28.63,1.91,1.89,1.91.75,0,1.35-.24,1.8-.71.45-.48.79-1.24,1.01-2.28l.37-1.76c.09-.4.13-.75.13-1.06,0-1.26-.64-1.89-1.91-1.89Z"/>
          <path d="m295.05,67.56h1.23c.23,0,.39.04.47.13.08.09.12.25.12.48l.15,7.99,3.28-7.68c.09-.21.18-.34.26-.4s.25-.09.48-.09h1.41c.25,0,.41.03.48.09s.12.19.13.4l.33,7.79,1.78-4.42c.32-.78.56-1.39.73-1.83.16-.44.27-.8.34-1.08.07-.28.11-.56.14-.84.01-.23.06-.38.14-.45.08-.07.24-.1.47-.1h1.23c.25,0,.41.04.48.11.07.07.11.22.11.44,0,.26-.02.51-.06.74-.04.23-.1.49-.2.79-.1.3-.24.68-.44,1.14-.2.46-.46,1.05-.78,1.75l-2.79,6.12c-.09.19-.18.31-.27.36-.1.05-.27.08-.52.08h-1.76c-.26,0-.44-.03-.52-.08-.08-.05-.12-.17-.12-.36l-.15-7.48-3.08,7.48c-.07.19-.16.31-.26.36-.1.05-.29.08-.55.08h-1.69c-.25,0-.41-.03-.48-.08-.07-.05-.12-.17-.13-.36l-.57-10.08c-.01-.07-.02-.14-.02-.21v-.23c0-.38.21-.57.62-.57Z"/>
          <path d="m313.88,77.18c.47,0,.87-.09,1.19-.26.32-.18.61-.47.86-.88.13-.25.38-.37.75-.37h1.19c.37,0,.56.12.57.35,0,.32-.12.7-.37,1.12-.25.43-.56.8-.95,1.12-.92.76-1.99,1.14-3.21,1.14-2.93,0-4.42-1.31-4.47-3.92,0-.31.01-.61.04-.9s.07-.59.13-.9l.24-1.25c.34-1.69.99-2.97,1.96-3.85s2.22-1.32,3.76-1.32c1.26,0,2.24.27,2.93.82.69.55,1.03,1.34,1.03,2.37,0,1.16-.4,2.06-1.19,2.72-.79.65-1.88.98-3.28.98h-2.97c-.09.4-.13.85-.13,1.36.01,1.11.65,1.67,1.91,1.67Zm1.39-7.81c-1.42,0-2.35.93-2.79,2.79h2.33c.69,0,1.22-.14,1.59-.42.37-.28.56-.67.56-1.19,0-.79-.57-1.19-1.69-1.19Z"/>
          <path d="m324.97,68.4l-.18.86c.73-1.13,1.8-1.69,3.19-1.69.47,0,.7.15.7.44,0,.1,0,.18-.02.22l-.24,1.14c-.06.25-.13.41-.22.5s-.24.12-.46.12h-.4c-1.77,0-2.85.89-3.23,2.68l-1.23,5.79c-.06.25-.14.42-.25.51-.11.09-.3.13-.58.13h-1.25c-.35,0-.53-.15-.53-.46,0-.1.01-.23.04-.37l2.13-10.05c.06-.25.14-.42.25-.51.11-.09.3-.13.58-.13h1.21c.35,0,.53.15.53.46,0,.1-.01.23-.04.37Z"/>
          <path d="m332.91,77.18c.47,0,.87-.09,1.19-.26.32-.18.61-.47.86-.88.13-.25.38-.37.75-.37h1.19c.37,0,.56.12.57.35,0,.32-.12.7-.37,1.12-.25.43-.56.8-.95,1.12-.92.76-1.99,1.14-3.21,1.14-2.93,0-4.42-1.31-4.47-3.92,0-.31.01-.61.04-.9s.07-.59.13-.9l.24-1.25c.34-1.69.99-2.97,1.96-3.85s2.22-1.32,3.76-1.32c1.26,0,2.24.27,2.93.82.69.55,1.03,1.34,1.03,2.37,0,1.16-.4,2.06-1.19,2.72-.79.65-1.88.98-3.28.98h-2.97c-.09.4-.13.85-.13,1.36.01,1.11.65,1.67,1.91,1.67Zm1.39-7.81c-1.42,0-2.35.93-2.79,2.79h2.33c.69,0,1.22-.14,1.59-.42.37-.28.56-.67.56-1.19,0-.79-.57-1.19-1.69-1.19Z"/>
          <path d="m351.7,64.07l-2.13,10.23c-.35,1.67-1,2.94-1.95,3.81-.95.87-2.15,1.3-3.62,1.3-1.38,0-2.45-.36-3.2-1.07-.76-.71-1.13-1.71-1.13-3,0-.51.07-1.06.2-1.65l.31-1.43c.35-1.61.97-2.85,1.87-3.71.89-.86,2.02-1.29,3.37-1.29s2.24.37,2.77,1.12l.9-4.31c.06-.25.14-.42.25-.51.11-.09.3-.13.58-.13h1.21c.23,0,.4.03.48.08s.13.14.13.27v.09s-.01.1-.04.2Zm-4.73,10.12l.37-1.67c.09-.43.13-.81.13-1.14,0-1.26-.64-1.89-1.91-1.89-.76,0-1.36.24-1.8.71-.44.48-.78,1.24-1.01,2.3l-.37,1.69c-.09.4-.13.76-.13,1.1,0,1.26.63,1.89,1.89,1.89.75,0,1.35-.24,1.8-.71.45-.48.8-1.24,1.03-2.28Z"/>
          <path d="m361.03,64.26l-.81,3.85c.72-.56,1.56-.84,2.53-.84,1.22,0,2.16.34,2.83,1.02.67.68,1,1.64,1,2.87,0,.53-.07,1.11-.2,1.76l-.29,1.36c-.73,3.4-2.58,5.1-5.54,5.1-1.38,0-2.45-.36-3.2-1.07-.76-.71-1.13-1.71-1.13-3,0-.51.07-1.06.2-1.65l2.05-9.61c.06-.25.14-.42.25-.51.11-.09.3-.13.58-.13h1.25c.35,0,.53.15.53.46,0,.1-.01.23-.04.37Zm-1.76,8.23l-.35,1.69c-.09.4-.13.76-.13,1.08,0,1.28.63,1.91,1.89,1.91.75,0,1.35-.24,1.8-.71s.79-1.24,1.01-2.28l.35-1.69c.09-.44.13-.83.13-1.17,0-1.23-.6-1.85-1.8-1.85-1.53,0-2.49,1-2.9,3.01Z"/>
          <path d="m376.41,72.54l-4.07,6.73c-.44.73-.84,1.33-1.21,1.8-.37.47-.74.83-1.11,1.09-.37.26-.78.44-1.22.54-.44.1-.96.15-1.56.15h-.13c-.56,0-.84-.15-.84-.46,0-.03,0-.07.01-.12,0-.05.02-.11.03-.17l.2-.9c.06-.25.13-.41.22-.49.09-.08.24-.12.46-.12h.18c.44,0,.79-.04,1.06-.12.26-.08.51-.24.73-.48.22-.24.48-.6.79-1.09l.29-.46-1.8-10.19s-.02-.12-.02-.22c0-.31.21-.46.64-.46h1.45c.21,0,.35.04.43.13.08.09.14.24.17.46l1.03,7.19,1.91-3.48c.31-.54.55-1.02.73-1.42.18-.4.31-.79.4-1.16.09-.37.15-.76.2-1.19.01-.23.06-.38.14-.45.08-.07.24-.1.47-.1h1.32c.25,0,.41.04.48.11.07.07.11.22.11.44,0,.72-.11,1.41-.33,2.07-.22.66-.6,1.44-1.14,2.35Z"/>
          <path d="m384.08,79.09h-1.3c-.35,0-.53-.15-.53-.46,0-.1.01-.23.04-.37l3.01-14.19c.06-.25.14-.42.24-.51.1-.09.29-.13.57-.13h4.14c1.41,0,2.52.35,3.34,1.06s1.23,1.66,1.23,2.86c0,.15-.01.3-.03.47-.02.17-.05.33-.08.5l-.07.31c-.48,2.2-1.65,3.57-3.5,4.11l1.98,5.72c.03.06.04.13.04.22,0,.28-.21.42-.64.42h-1.47c-.25,0-.42-.04-.52-.11-.1-.07-.19-.25-.28-.53l-1.76-5.48h-2.46l-1.17,5.48c-.06.25-.14.42-.24.51-.1.09-.29.13-.57.13Zm3.52-13.38l-1.06,4.97h2.66c1.55,0,2.49-.76,2.79-2.29l.07-.31c.04-.23.07-.46.07-.68,0-1.13-.7-1.69-2.09-1.69h-2.44Z"/>
          <path d="m405.05,78.45l-.33-3.1h-5.61l-1.61,3.12c-.15.28-.27.45-.37.52s-.29.1-.55.1h-1.56c-.28,0-.42-.1-.42-.31,0-.13.04-.24.11-.33l7.94-14.63c.09-.16.18-.27.29-.32s.27-.08.51-.08h1.98c.23,0,.39.03.46.08s.12.16.15.32l1.63,14.26c.01.09.03.18.03.29,0,.1.01.17.01.2,0,.35-.19.53-.57.53h-1.45c-.25,0-.41-.04-.48-.11-.07-.07-.12-.25-.15-.53Zm-1.25-12.1l-3.5,6.71h4.18l-.68-6.71Z"/>
          <path d="m409.76,78.26l3.01-14.19c.06-.25.14-.42.25-.51.11-.09.3-.13.58-.13h1.32c.35,0,.53.15.53.46,0,.1-.01.23-.04.37l-3.01,14.19c-.06.25-.14.42-.24.51-.1.09-.3.13-.59.13h-1.32c-.35,0-.53-.15-.53-.46,0-.1.01-.23.04-.37Z"/>
          <path d="m415.61,78.26l3.01-14.19c.06-.25.14-.42.25-.51.11-.09.3-.13.58-.13h7.99c.35,0,.53.15.53.46,0,.06-.01.18-.04.35l-.18.86c-.06.28-.14.47-.24.56-.1.1-.29.14-.55.14h-6.03l-.81,3.87h5.46c.35,0,.53.15.53.46,0,.06-.02.18-.04.35l-.2.86c-.06.29-.14.48-.24.57s-.28.13-.53.13h-5.48l-1.36,6.4c-.06.25-.14.42-.24.51-.1.09-.3.13-.59.13h-1.32c-.35,0-.53-.15-.53-.46,0-.1.01-.23.04-.37Z"/>
          <path d="m427.31,78.26l3.01-14.19c.06-.25.14-.42.25-.51.11-.09.3-.13.58-.13h7.99c.35,0,.53.15.53.46,0,.06-.01.18-.04.35l-.18.86c-.06.28-.14.47-.24.56-.1.1-.29.14-.55.14h-6.03l-.81,3.87h5.46c.35,0,.53.15.53.46,0,.06-.02.18-.04.35l-.2.86c-.06.29-.14.48-.24.57s-.28.13-.53.13h-5.48l-1.36,6.4c-.06.25-.14.42-.24.51-.1.09-.3.13-.59.13h-1.32c-.35,0-.53-.15-.53-.46,0-.1.01-.23.04-.37Z"/>
          <path d="m442.87,63.43h7.96c.35,0,.53.15.53.46,0,.06-.01.18-.04.35l-.18.86c-.06.28-.14.47-.24.56-.1.1-.29.14-.55.14h-6.01l-.86,4.05h5.39c.35,0,.53.15.53.46,0,.06-.01.18-.04.35l-.2.86c-.07.29-.16.48-.25.57s-.27.13-.52.13h-5.41l-.95,4.49h6.14c.35,0,.53.15.53.46,0,.1-.01.23-.04.37l-.2.84c-.07.29-.16.48-.25.57-.1.09-.27.13-.52.13h-8.18c-.35,0-.53-.15-.53-.46,0-.1.01-.23.04-.37l3.01-14.19c.06-.25.14-.42.25-.51.11-.09.3-.13.58-.13Z"/>
          <path d="m451.27,78.26l3.01-14.19c.06-.25.14-.42.25-.51.11-.09.3-.13.58-.13h1.32c.35,0,.53.15.53.46,0,.1-.01.23-.04.37l-3.01,14.19c-.06.25-.14.42-.24.51-.1.09-.3.13-.59.13h-1.32c-.35,0-.53-.15-.53-.46,0-.1.01-.23.04-.37Z"/>
          <path d="m457.8,74.71h1.1c.25,0,.42.05.52.14.09.1.17.29.21.58.18,1.14,1.02,1.72,2.53,1.72.82,0,1.47-.2,1.96-.59.48-.4.73-.94.73-1.63,0-.48-.13-.89-.38-1.23-.26-.34-.68-.67-1.27-.99l-1.54-.84c-1-.54-1.72-1.14-2.18-1.79-.46-.65-.68-1.42-.68-2.3,0-.94.22-1.76.67-2.46s1.07-1.25,1.88-1.65,1.75-.59,2.82-.59c1.42,0,2.56.3,3.42.89.86.59,1.38,1.44,1.57,2.54.01.06.02.18.02.37,0,.34-.06.56-.18.66-.12.1-.37.15-.75.15h-1.06c-.23,0-.4-.04-.48-.13-.09-.09-.18-.3-.26-.64-.29-1.06-1.07-1.58-2.33-1.58-.79,0-1.42.2-1.89.6-.47.4-.7.94-.7,1.62,0,.44.12.82.37,1.14s.67.65,1.28.97l1.52.84c1.06.57,1.8,1.17,2.24,1.78.44.62.66,1.36.66,2.24,0,1-.22,1.86-.67,2.6s-1.09,1.3-1.91,1.71c-.83.4-1.8.6-2.92.6-1.03,0-1.93-.16-2.72-.47-.79-.31-1.39-.75-1.83-1.32-.43-.56-.65-1.23-.65-1.99,0-.38.06-.63.18-.76.12-.12.36-.19.73-.19Z"/>
          <path d="m473.2,63.43h7.96c.35,0,.53.15.53.46,0,.06-.01.18-.04.35l-.18.86c-.06.28-.14.47-.24.56-.1.1-.29.14-.55.14h-6.01l-.86,4.05h5.39c.35,0,.53.15.53.46,0,.06-.01.18-.04.35l-.2.86c-.07.29-.16.48-.25.57s-.27.13-.52.13h-5.41l-.95,4.49h6.14c.35,0,.53.15.53.46,0,.1-.01.23-.04.37l-.2.84c-.07.29-.16.48-.25.57-.1.09-.27.13-.52.13h-8.18c-.35,0-.53-.15-.53-.46,0-.1.01-.23.04-.37l3.01-14.19c.06-.25.14-.42.25-.51.11-.09.3-.13.58-.13Z"/>
          <path d="m495.29,64.26l-3.01,14.19c-.06.25-.14.42-.25.51-.11.09-.3.13-.58.13h-1.19c-.28,0-.47-.04-.56-.11-.1-.07-.19-.24-.28-.51l-3.1-10.12-2.13,10.1c-.06.25-.14.42-.24.51-.1.09-.29.13-.57.13h-1.28c-.35,0-.53-.15-.53-.46,0-.1.01-.23.04-.37l3.01-14.19c.06-.25.14-.42.25-.51.11-.09.3-.13.58-.13h1.19c.26,0,.44.03.54.1.09.07.19.24.27.52l3.1,10.16,2.16-10.14c.06-.25.14-.42.25-.51.11-.09.3-.13.58-.13h1.25c.35,0,.53.15.53.46,0,.1-.01.23-.04.37Z"/>
          <path d="m507.79,63.08c1.25,0,2.25.3,3.01.9.76.6,1.14,1.39,1.14,2.35,0,.19,0,.32-.02.4-.03.23-.1.39-.2.47-.1.08-.29.12-.55.12h-1.28c-.23,0-.38-.03-.45-.08-.07-.05-.11-.18-.12-.38-.04-1.06-.65-1.58-1.83-1.58-.78,0-1.38.25-1.81.76-.43.51-.65,1.21-.65,2.12,0,1.2.76,1.8,2.29,1.8h.2c.23,0,.39.03.47.08.08.05.12.16.12.32,0,.13-.02.29-.07.48l-.11.48c-.06.28-.13.46-.21.55-.08.09-.22.13-.43.13h-.95c-1.03,0-1.8.2-2.33.59s-.87,1.03-1.01,1.89l-.04.29c-.01.07-.02.21-.02.4,0,.63.22,1.12.66,1.46.44.34,1.06.52,1.85.52,1.03,0,1.84-.3,2.44-.9s1.04-1.55,1.32-2.84l.57-2.75c.06-.28.14-.47.24-.56s.29-.14.55-.14h2.84c.23,0,.4.03.48.09s.13.16.13.31c0,.12-.02.26-.07.44l-.13.59c-.06.25-.13.41-.22.5-.09.08-.23.12-.44.12h-1.06l-.42,1.98c-.73,3.61-2.85,5.41-6.34,5.41-1.6,0-2.87-.36-3.81-1.07s-1.41-1.67-1.41-2.87v-.41c0-.1.01-.19.04-.3l.04-.26c.35-2.05,1.51-3.36,3.48-3.92-.4-.23-.71-.57-.95-1.01s-.35-.91-.35-1.41c0-1.01.23-1.9.68-2.66.45-.76,1.08-1.36,1.89-1.78s1.74-.64,2.79-.64Z"/>
          <path d="m531.26,64.07l-2.13,10.23c-.35,1.67-1,2.94-1.95,3.81-.95.87-2.15,1.3-3.62,1.3-1.38,0-2.45-.36-3.2-1.07-.76-.71-1.13-1.71-1.13-3,0-.51.07-1.06.2-1.65l.31-1.43c.35-1.61.97-2.85,1.87-3.71.89-.86,2.02-1.29,3.37-1.29s2.24.37,2.77,1.12l.9-4.31c.06-.25.14-.42.25-.51.11-.09.3-.13.58-.13h1.21c.23,0,.4.03.48.08s.13.14.13.27v.09s-.01.1-.04.2Zm-4.73,10.12l.37-1.67c.09-.43.13-.81.13-1.14,0-1.26-.64-1.89-1.91-1.89-.76,0-1.36.24-1.8.71-.44.48-.78,1.24-1.01,2.3l-.37,1.69c-.09.4-.13.76-.13,1.1,0,1.26.63,1.89,1.89,1.89.75,0,1.35-.24,1.8-.71.45-.48.8-1.24,1.03-2.28Z"/>
          <path d="m532.62,79.09h-1.23c-.35,0-.53-.15-.53-.46,0-.1.01-.23.04-.37l2.13-10.05c.06-.25.14-.42.25-.51.11-.09.31-.13.6-.13h1.23c.35,0,.53.15.53.46,0,.1-.02.23-.04.37l-2.13,10.05c-.06.25-.14.42-.25.51-.11.09-.31.13-.6.13Zm2.62-15.95c.91,0,1.36.4,1.36,1.21,0,.18-.02.37-.07.57-.21.88-.75,1.32-1.63,1.32s-1.36-.4-1.36-1.21c0-.19.02-.38.07-.57.21-.88.75-1.32,1.63-1.32Z"/>
          <path d="m541.18,77.18c.47,0,.87-.09,1.19-.26.32-.18.61-.47.86-.88.13-.25.38-.37.75-.37h1.19c.37,0,.56.12.57.35,0,.32-.12.7-.37,1.12-.25.43-.56.8-.95,1.12-.92.76-1.99,1.14-3.21,1.14-2.93,0-4.42-1.31-4.47-3.92,0-.31.01-.61.04-.9s.07-.59.13-.9l.24-1.25c.34-1.69.99-2.97,1.96-3.85s2.22-1.32,3.76-1.32c1.26,0,2.24.27,2.93.82.69.55,1.03,1.34,1.03,2.37,0,1.16-.4,2.06-1.19,2.72-.79.65-1.88.98-3.28.98h-2.97c-.09.4-.13.85-.13,1.36.01,1.11.65,1.67,1.91,1.67Zm1.39-7.81c-1.42,0-2.35.93-2.79,2.79h2.33c.69,0,1.22-.14,1.59-.42.37-.28.56-.67.56-1.19,0-.79-.57-1.19-1.69-1.19Z"/>
          <path d="m564.11,79.09h-1.25c-.35,0-.53-.15-.53-.46,0-.1.01-.23.04-.37l2-9.48-3.41,5.1c-.19.29-.34.47-.44.54-.1.07-.29.1-.57.1h-1.28c-.28,0-.46-.04-.55-.11-.09-.07-.16-.25-.22-.53l-1.23-5.1-2.05,9.68c-.06.25-.14.42-.24.51-.1.09-.29.13-.57.13h-1.28c-.35,0-.53-.15-.53-.46,0-.1.01-.23.04-.37l3.01-14.19c.06-.25.14-.42.24-.51.1-.09.29-.13.57-.13h1.19c.29,0,.49.04.59.12s.18.25.24.52l1.87,7.72,5.21-7.72c.19-.26.35-.44.47-.52.12-.08.33-.12.63-.12h1.39c.35,0,.53.15.53.46,0,.1-.01.23-.04.37l-3.01,14.19c-.06.25-.14.42-.24.51-.1.09-.3.13-.59.13Z"/>
          <path d="m572.68,79.4c-1.38,0-2.45-.36-3.2-1.07-.76-.71-1.13-1.71-1.13-3,0-.51.07-1.06.2-1.65l.26-1.25c.72-3.45,2.59-5.17,5.61-5.17,1.36,0,2.42.35,3.16,1.06.74.7,1.11,1.7,1.11,2.99,0,.23-.01.49-.03.76-.02.27-.07.56-.14.87l-.29,1.36c-.35,1.67-1,2.94-1.94,3.81-.94.87-2.14,1.3-3.61,1.3Zm1.54-9.92c-.75,0-1.35.24-1.8.71-.46.48-.79,1.22-.99,2.23l-.37,1.76c-.09.4-.13.76-.13,1.08,0,1.28.63,1.91,1.89,1.91.75,0,1.35-.24,1.8-.71.45-.48.79-1.24,1.01-2.28l.37-1.76c.09-.4.13-.75.13-1.06,0-1.26-.64-1.89-1.91-1.89Z"/>
          <path d="m585.18,64.26l-.81,3.85c.72-.56,1.56-.84,2.53-.84,1.22,0,2.16.34,2.83,1.02.67.68,1,1.64,1,2.87,0,.53-.07,1.11-.2,1.76l-.29,1.36c-.73,3.4-2.58,5.1-5.54,5.1-1.38,0-2.45-.36-3.2-1.07-.76-.71-1.13-1.71-1.13-3,0-.51.07-1.06.2-1.65l2.05-9.61c.06-.25.14-.42.25-.51.11-.09.3-.13.58-.13h1.25c.35,0,.53.15.53.46,0,.1-.01.23-.04.37Zm-1.76,8.23l-.35,1.69c-.09.4-.13.76-.13,1.08,0,1.28.63,1.91,1.89,1.91.75,0,1.35-.24,1.8-.71s.79-1.24,1.01-2.28l.35-1.69c.09-.44.13-.83.13-1.17,0-1.23-.6-1.85-1.8-1.85-1.53,0-2.49,1-2.9,3.01Z"/>
          <path d="m593.54,79.09h-1.23c-.35,0-.53-.15-.53-.46,0-.1.01-.23.04-.37l2.13-10.05c.06-.25.14-.42.25-.51.11-.09.31-.13.6-.13h1.23c.35,0,.53.15.53.46,0,.1-.02.23-.04.37l-2.13,10.05c-.06.25-.14.42-.25.51-.11.09-.31.13-.6.13Zm2.62-15.95c.91,0,1.36.4,1.36,1.21,0,.18-.02.37-.07.57-.21.88-.75,1.32-1.63,1.32s-1.36-.4-1.36-1.21c0-.19.02-.38.07-.57.21-.88.75-1.32,1.63-1.32Z"/>
          <path d="m599.04,79.09h-1.25c-.35,0-.53-.15-.53-.46,0-.1.01-.23.04-.37l3.01-14.19c.06-.25.14-.42.25-.51.11-.09.3-.13.58-.13h1.25c.35,0,.53.15.53.46,0,.1-.01.23-.04.37l-3.01,14.19c-.06.25-.14.42-.25.51-.11.09-.3.13-.58.13Z"/>
          <path d="m604.54,79.09h-1.23c-.35,0-.53-.15-.53-.46,0-.1.01-.23.04-.37l2.13-10.05c.06-.25.14-.42.25-.51.11-.09.31-.13.6-.13h1.23c.35,0,.53.15.53.46,0,.1-.02.23-.04.37l-2.13,10.05c-.06.25-.14.42-.25.51-.11.09-.31.13-.6.13Zm2.62-15.95c.91,0,1.36.4,1.36,1.21,0,.18-.02.37-.07.57-.21.88-.75,1.32-1.63,1.32s-1.36-.4-1.36-1.21c0-.19.02-.38.07-.57.21-.88.75-1.32,1.63-1.32Z"/>
          <path d="m616.79,79.09h-1.21c-.35,0-.53-.15-.53-.46,0-.1.01-.23.04-.37l.02-.11c-.46.37-.89.63-1.32.79-.43.16-.9.24-1.43.24-1.17,0-2.08-.35-2.73-1.04-.65-.7-.97-1.68-.97-2.94,0-.56.07-1.14.2-1.76l.22-1.01c.78-3.45,2.53-5.17,5.26-5.17.69,0,1.27.12,1.75.37.48.25.81.6,1,1.06l.11-.48c.06-.25.14-.42.25-.51.11-.09.3-.13.58-.13h1.23c.35,0,.53.15.53.46,0,.1-.01.23-.04.37l-2.13,10.05c-.06.25-.14.42-.24.51-.1.09-.3.13-.59.13Zm-.81-5.19l.31-1.45c.09-.4.13-.75.13-1.06,0-1.28-.64-1.91-1.91-1.91-.75,0-1.35.24-1.8.71-.46.48-.79,1.22-.99,2.23l-.31,1.45c-.09.4-.13.76-.13,1.1,0,1.32.62,1.98,1.87,1.98.75,0,1.35-.25,1.81-.75s.8-1.27,1.02-2.31Z"/>
          <path d="m625.2,68.4l-.18.86c.73-1.13,1.8-1.69,3.19-1.69.47,0,.7.15.7.44,0,.1,0,.18-.02.22l-.24,1.14c-.06.25-.13.41-.22.5s-.24.12-.46.12h-.4c-1.77,0-2.85.89-3.23,2.68l-1.23,5.79c-.06.25-.14.42-.25.51-.11.09-.3.13-.58.13h-1.25c-.35,0-.53-.15-.53-.46,0-.1.01-.23.04-.37l2.13-10.05c.06-.25.14-.42.25-.51.11-.09.3-.13.58-.13h1.21c.35,0,.53.15.53.46,0,.1-.01.23-.04.37Z"/>
        </g>
      </g>
    </g>
  </g>
</svg>