<?xml version="1.0" encoding="UTF-8"?>
<svg id="Layer_2" data-name="Layer 2" xmlns="http://www.w3.org/2000/svg" xmlns:xlink="http://www.w3.org/1999/xlink" viewBox="0 0 228.6 91.3">
  <defs>
    <style>
      .cls-1 {
        fill: url(#Gradient_4);
      }
    </style>
    <linearGradient id="Gradient_4" data-name="Gradient 4" x1="0" y1="45.65" x2="228.6" y2="45.65" gradientUnits="userSpaceOnUse">
      <stop offset="0" stop-color="#ea8000"/>
      <stop offset="1" stop-color="#d73540"/>
    </linearGradient>
  </defs>
  <g id="Layer_1-2" data-name="Layer 1">
    <path class="cls-1" d="m186.77,0c-12.48,0-24.2,5.04-33.14,13.15-.89.8-2.22.74-3.04-.13-7.53-8.05-18.35-13.02-30.77-13.02-13.21,0-25.59,5.62-34.71,14.59-.9.88-2.36.9-3.17-.06C74.38,5.59,63,0,49.82,0,24.61,0,2.38,20.44.18,45.65c-2.21,25.21,16.44,45.65,41.66,45.65,13.21,0,25.59-5.62,34.71-14.59.9-.88,2.36-.9,3.17.06,7.55,8.93,18.93,14.52,32.11,14.52,12.48,0,24.2-5.04,33.14-13.15.89-.8,2.22-.74,3.04.13,7.53,8.05,18.35,13.02,30.77,13.02,25.21,0,47.44-20.44,49.64-45.65C230.63,20.44,211.98,0,186.77,0Z"/>
  </g>
</svg>