<?xml version="1.0" encoding="UTF-8" standalone="no"?>
<!-- Generator: Adobe Illustrator 27.5.0, SVG Export Plug-In . SVG Version: 6.00 Build 0)  -->

<svg
   version="1.1"
   id="Layer_2_00000181785954216847344110000018315607615962602136_"
   x="0px"
   y="0px"
   viewBox="0 0 800 169.1"
   style="enable-background:new 0 0 800 169.1;"
   xml:space="preserve"
   sodipodi:docname="dreiseenstafette_minimal_light.svg"
   inkscape:version="1.2.2 (b0a8486541, 2022-12-01)"
   xmlns:inkscape="http://www.inkscape.org/namespaces/inkscape"
   xmlns:sodipodi="http://sodipodi.sourceforge.net/DTD/sodipodi-0.dtd"
   xmlns="http://www.w3.org/2000/svg"
   xmlns:svg="http://www.w3.org/2000/svg"><defs
   id="defs80">
	
	
	
		<linearGradient
   id="SVGID_1_"
   gradientUnits="userSpaceOnUse"
   x1="-9.094947e-13"
   y1="23.7873"
   x2="104.5891"
   y2="23.7873"
   gradientTransform="matrix(1.0404631,0,0,-1.0404631,151.56472,97.756879)">
		<stop
   offset="0"
   style="stop-color:#157FFF"
   id="stop40" />
		<stop
   offset="1"
   style="stop-color:#28CABF"
   id="stop42" />
	</linearGradient>
	
	
	
</defs><sodipodi:namedview
   id="namedview78"
   pagecolor="#ffffff"
   bordercolor="#000000"
   borderopacity="0.25"
   inkscape:showpageshadow="2"
   inkscape:pageopacity="0.0"
   inkscape:pagecheckerboard="0"
   inkscape:deskcolor="#d1d1d1"
   showgrid="false"
   inkscape:zoom="0.99106232"
   inkscape:cx="399.57124"
   inkscape:cy="109.47848"
   inkscape:window-width="956"
   inkscape:window-height="1036"
   inkscape:window-x="960"
   inkscape:window-y="22"
   inkscape:window-maximized="1"
   inkscape:current-layer="Layer_2_00000181785954216847344110000018315607615962602136_" />
<style
   type="text/css"
   id="style2">
	.st0{fill:none;stroke:#000000;stroke-width:4;stroke-linecap:round;stroke-miterlimit:10;}
	.st1{fill:url(#SVGID_1_);}
</style>
<g
   id="g443"
   style="fill:#ffffff"
   transform="translate(-30.513935,17.267367)"><g
     id="g36"
     transform="matrix(0.73576489,0,0,0.73576489,211.40354,35.069195)"
     style="fill:#ffffff">
		<path
   d="m 61.2,4.7 -10.9,52 c -1.8,8.5 -5.1,15 -9.9,19.4 -4.8,4.4 -11,6.6 -18.4,6.6 C 15,82.7 9.6,80.9 5.7,77.3 1.9,73.6 0,68.6 0,62 0,59.4 0.3,56.6 1,53.6 l 1.6,-7.3 c 1.8,-8.2 5,-14.5 9.5,-18.9 4.5,-4.4 10.3,-6.5 17.1,-6.5 6.8,0 11.4,1.9 14.1,5.7 L 47.9,4.7 c 0.3,-1.3 0.7,-2.1 1.3,-2.6 0.6,-0.5 1.5,-0.7 3,-0.7 h 6.2 c 1.2,0 2,0.1 2.5,0.4 0.5,0.3 0.7,0.7 0.7,1.4 v 0.5 c -0.2,0.1 -0.2,0.5 -0.4,1 z m -24,51.5 1.9,-8.5 c 0.5,-2.2 0.7,-4.1 0.7,-5.8 0,-6.4 -3.2,-9.6 -9.7,-9.6 -3.9,0 -6.9,1.2 -9.2,3.6 -2.3,2.4 -4,6.3 -5.1,11.7 l -1.9,8.6 c -0.4,2 -0.7,3.9 -0.7,5.6 0,6.4 3.2,9.6 9.6,9.6 3.8,0 6.9,-1.2 9.2,-3.6 2.2,-2.5 4,-6.3 5.2,-11.6 z"
   id="path4"
   style="fill:#ffffff" />
		<path
   d="m 83.2,26.7 -0.9,4.4 c 3.7,-5.7 9.1,-8.6 16.2,-8.6 2.4,0 3.6,0.8 3.6,2.2 0,0.5 0,0.9 -0.1,1.1 l -1.2,5.8 c -0.3,1.3 -0.7,2.1 -1.1,2.5 -0.4,0.4 -1.2,0.6 -2.3,0.6 h -2 c -9,0 -14.5,4.5 -16.4,13.7 l -6.3,29.4 c -0.3,1.3 -0.7,2.1 -1.3,2.6 -0.6,0.5 -1.6,0.7 -3,0.7 H 62 c -1.8,0 -2.7,-0.8 -2.7,-2.3 0,-0.5 0.1,-1.2 0.2,-1.9 L 70.4,25.7 c 0.3,-1.3 0.7,-2.1 1.3,-2.6 0.6,-0.5 1.6,-0.7 3,-0.7 h 6.2 c 1.8,0 2.7,0.8 2.7,2.4 -0.2,0.6 -0.3,1.2 -0.4,1.9 z"
   id="path6"
   style="fill:#ffffff" />
		<path
   d="m 123.6,71.4 c 2.4,0 4.4,-0.4 6,-1.3 1.6,-0.9 3.1,-2.4 4.4,-4.5 0.7,-1.3 1.9,-1.9 3.8,-1.9 h 6 c 1.9,0 2.8,0.6 2.9,1.8 0,1.6 -0.6,3.5 -1.9,5.7 -1.3,2.2 -2.9,4.1 -4.8,5.7 -4.7,3.9 -10.1,5.8 -16.3,5.8 -14.9,0 -22.5,-6.6 -22.7,-19.9 0,-1.6 0.1,-3.1 0.2,-4.6 0.2,-1.5 0.4,-3 0.7,-4.6 l 1.2,-6.4 c 1.7,-8.6 5,-15.1 10,-19.6 5,-4.5 11.3,-6.7 19.1,-6.7 6.4,0 11.4,1.4 14.9,4.2 3.5,2.8 5.3,6.8 5.3,12 0,5.9 -2,10.5 -6,13.8 -4,3.3 -9.6,5 -16.7,5 h -15.1 c -0.4,2 -0.7,4.3 -0.7,6.9 0,5.8 3.2,8.6 9.7,8.6 z m 7,-39.7 c -7.2,0 -12,4.7 -14.2,14.2 h 11.9 c 3.5,0 6.2,-0.7 8.1,-2.1 1.9,-1.4 2.9,-3.4 2.9,-6 -0.1,-4.1 -2.9,-6.1 -8.7,-6.1 z"
   id="path8"
   style="fill:#ffffff" />
		<path
   d="m 165,81.1 h -6.3 c -1.8,0 -2.7,-0.8 -2.7,-2.3 0,-0.5 0.1,-1.2 0.2,-1.9 l 10.9,-51.2 c 0.3,-1.3 0.7,-2.1 1.3,-2.6 0.6,-0.5 1.6,-0.7 3.1,-0.7 h 6.3 c 1.8,0 2.7,0.8 2.7,2.4 0,0.5 -0.1,1.2 -0.2,1.9 l -10.9,51.2 c -0.3,1.3 -0.7,2.1 -1.3,2.6 -0.6,0.5 -1.6,0.6 -3.1,0.6 z M 178.3,0 c 4.6,0 6.9,2 6.9,6.2 0,0.9 -0.1,1.9 -0.3,2.9 -1.1,4.5 -3.8,6.7 -8.3,6.7 -4.5,0 -6.9,-2.1 -6.9,-6.1 0,-1 0.1,-1.9 0.3,-2.9 1.1,-4.6 3.8,-6.8 8.3,-6.8 z"
   id="path10"
   style="fill:#ffffff" />
		<path
   d="m 196.2,66.6 c 1,3.9 4.3,5.8 10,5.8 2.8,0 5,-0.6 6.7,-1.9 1.7,-1.3 2.5,-3 2.5,-5.2 0,-1.7 -0.7,-3.2 -2.2,-4.5 C 211.7,59.5 209,57.9 205,56 l -5.1,-2.5 c -6.6,-3.1 -9.9,-7.7 -9.9,-14 0,-5.7 2.1,-10.2 6.3,-13.6 4.2,-3.4 9.8,-5.1 16.8,-5.1 4.2,0 7.9,0.6 11.1,1.9 3.2,1.2 5.8,2.9 7.7,5.1 1.9,2.2 2.8,4.6 2.8,7.4 0,1.7 -0.3,2.8 -0.8,3.3 -0.5,0.5 -1.8,0.7 -3.7,0.7 h -5.9 c -1,0 -1.7,-0.2 -2.1,-0.5 -0.4,-0.3 -0.7,-1.1 -0.9,-2.2 -0.8,-3.7 -3.7,-5.6 -8.8,-5.6 -6,0 -8.9,2.3 -8.9,6.9 0,1.6 0.5,3 1.5,3.9 1,0.9 2.9,2.1 5.8,3.4 l 5.1,2.2 c 8.7,3.7 13,8.8 13,15.3 0,6.5 -2.1,11.2 -6.2,14.7 -4.1,3.5 -9.9,5.3 -17.4,5.3 -6.8,0 -12.2,-1.4 -16.3,-4.1 -4.1,-2.7 -6.1,-6.3 -6.1,-10.7 0,-1.7 0.3,-2.8 0.8,-3.3 0.5,-0.5 1.8,-0.7 3.7,-0.7 h 5.6 c 1,0 1.8,0.2 2.2,0.6 0.2,0.4 0.6,1.1 0.9,2.2 z"
   id="path12"
   style="fill:#ffffff" />
		<path
   d="m 262.6,71.4 c 2.4,0 4.4,-0.4 6,-1.3 1.6,-0.9 3.1,-2.4 4.4,-4.5 0.7,-1.3 1.9,-1.9 3.8,-1.9 h 6 c 1.9,0 2.8,0.6 2.9,1.8 0,1.6 -0.6,3.5 -1.9,5.7 -1.3,2.2 -2.9,4.1 -4.8,5.7 -4.7,3.9 -10.1,5.8 -16.3,5.8 -14.9,0 -22.5,-6.6 -22.7,-19.9 0,-1.6 0.1,-3.1 0.2,-4.6 0.1,-1.5 0.4,-3 0.7,-4.6 l 1.2,-6.4 c 1.7,-8.6 5,-15.1 10,-19.6 4.9,-4.5 11.3,-6.7 19.1,-6.7 6.4,0 11.4,1.4 14.9,4.2 3.5,2.8 5.3,6.8 5.3,12 0,5.9 -2,10.5 -6,13.8 -4,3.3 -9.6,5 -16.7,5 h -15.1 c -0.4,2 -0.7,4.3 -0.7,6.9 0,5.8 3.2,8.6 9.7,8.6 z m 7,-39.7 c -7.2,0 -12,4.7 -14.2,14.2 h 11.9 c 3.5,0 6.2,-0.7 8.1,-2.1 1.9,-1.4 2.9,-3.4 2.9,-6 -0.1,-4.1 -2.9,-6.1 -8.7,-6.1 z"
   id="path14"
   style="fill:#ffffff" />
		<path
   d="m 319.6,71.4 c 2.4,0 4.4,-0.4 6,-1.3 1.6,-0.9 3.1,-2.4 4.4,-4.5 0.7,-1.3 1.9,-1.9 3.8,-1.9 h 6 c 1.9,0 2.8,0.6 2.9,1.8 0,1.6 -0.6,3.5 -1.9,5.7 -1.3,2.2 -2.9,4.1 -4.8,5.7 -4.7,3.9 -10.1,5.8 -16.3,5.8 -14.9,0 -22.5,-6.6 -22.7,-19.9 0,-1.6 0.1,-3.1 0.2,-4.6 0.1,-1.5 0.4,-3 0.7,-4.6 l 1.2,-6.4 c 1.7,-8.6 5,-15.1 10,-19.6 4.9,-4.5 11.3,-6.7 19.1,-6.7 6.4,0 11.4,1.4 14.9,4.2 3.5,2.8 5.3,6.8 5.3,12 0,5.9 -2,10.5 -6,13.8 -4,3.3 -9.6,5 -16.7,5 h -15.1 c -0.5,2 -0.7,4.3 -0.7,6.9 0.1,5.8 3.3,8.6 9.7,8.6 z m 7.1,-39.7 c -7.2,0 -12,4.7 -14.2,14.2 h 11.9 c 3.5,0 6.2,-0.7 8.1,-2.1 1.9,-1.4 2.9,-3.4 2.9,-6 -0.1,-4.1 -3,-6.1 -8.7,-6.1 z"
   id="path16"
   style="fill:#ffffff" />
		<path
   d="m 376,26.7 -0.3,1.5 c 3.8,-4.9 8.8,-7.3 15,-7.3 5,0 9,1.5 12,4.5 3,3 4.5,7 4.5,12.1 0,1.9 -0.2,3.8 -0.7,5.8 l -7.4,34.6 c -0.3,1.3 -0.7,2.1 -1.2,2.6 -0.5,0.4 -1.5,0.7 -3,0.7 h -6.4 c -1.8,0 -2.7,-0.8 -2.7,-2.3 0,-0.5 0.1,-1.2 0.2,-1.9 l 7.2,-33.7 c 0.2,-1 0.3,-1.9 0.3,-2.8 0,-2.4 -0.7,-4.3 -2.1,-5.7 -1.4,-1.4 -3.4,-2.1 -5.9,-2.1 -3.2,0 -6,1.1 -8.3,3.4 -2.3,2.3 -3.9,5.3 -4.8,9.2 l -6.9,32.8 c -0.3,1.3 -0.7,2.1 -1.3,2.6 -0.6,0.5 -1.5,0.7 -3,0.7 h -6.4 c -1.8,0 -2.7,-0.8 -2.7,-2.3 0,-0.5 0.1,-1.2 0.2,-1.9 L 363.2,26 c 0.3,-1.3 0.7,-2.1 1.3,-2.6 0.6,-0.5 1.5,-0.7 3,-0.7 h 6.2 c 1.8,0 2.7,0.8 2.7,2.4 -0.1,0.2 -0.2,0.9 -0.4,1.6 z"
   id="path18"
   style="fill:#ffffff" />
		<path
   d="m 425.5,66.6 c 1,3.9 4.3,5.8 10,5.8 2.8,0 5,-0.6 6.7,-1.9 1.7,-1.3 2.5,-3 2.5,-5.2 0,-1.7 -0.7,-3.2 -2.2,-4.5 -1.5,-1.3 -4.2,-2.9 -8.2,-4.8 l -5.1,-2.5 c -6.6,-3.1 -9.9,-7.7 -9.9,-14 0,-5.7 2.1,-10.2 6.3,-13.6 4.2,-3.4 9.8,-5.1 16.8,-5.1 4.2,0 7.9,0.6 11.1,1.9 3.2,1.2 5.8,2.9 7.7,5.1 1.9,2.2 2.8,4.6 2.8,7.4 0,1.7 -0.3,2.8 -0.8,3.3 -0.5,0.5 -1.8,0.7 -3.7,0.7 h -5.9 c -1,0 -1.7,-0.2 -2.1,-0.5 -0.4,-0.3 -0.7,-1.1 -1,-2.2 -0.8,-3.7 -3.7,-5.6 -8.8,-5.6 -6,0 -9,2.3 -9,6.9 0,1.6 0.5,3 1.5,3.9 1,0.9 2.9,2.1 5.8,3.4 l 5.1,2.2 c 8.7,3.7 13,8.8 13,15.3 0,6.5 -2,11.4 -6.1,14.9 -4.1,3.5 -9.9,5.3 -17.4,5.3 -6.8,0 -12.2,-1.4 -16.3,-4.1 -4.1,-2.7 -6.1,-6.3 -6.1,-10.7 0,-1.7 0.3,-2.8 0.8,-3.3 0.5,-0.5 1.8,-0.7 3.7,-0.7 h 5.6 c 1,0 1.8,0.2 2.2,0.6 0.4,0.2 0.7,0.9 1,2 z"
   id="path20"
   style="fill:#ffffff" />
		<path
   d="m 498,10.3 -2.6,12.2 h 10 c 1.5,0 2.2,0.6 2.2,1.9 0,0.6 0,1 -0.1,1.2 l -1,4.7 c -0.3,1.3 -0.7,2.1 -1.1,2.5 -0.5,0.4 -1.2,0.6 -2.4,0.6 h -9.9 l -6,28.1 c -0.3,1.6 -0.5,2.7 -0.5,3.4 0,3.1 2,4.7 5.9,4.7 h 4.9 c 1.5,0 2.2,0.7 2.2,2.1 0,0.4 0,0.8 -0.1,1 l -1.1,5.3 c -0.3,1.3 -0.8,2.2 -1.6,2.6 -0.8,0.4 -2.3,0.6 -4.7,0.6 h -1.7 c -5.9,0 -10.2,-1.1 -13,-3.4 -2.8,-2.3 -4.2,-5.8 -4.2,-10.7 0,-1.1 0,-2.2 0.2,-3.4 0.1,-1.2 0.4,-2.6 0.7,-4.1 l 5.6,-26.1 h -5.8 c -1.6,0 -2.4,-0.6 -2.4,-1.8 0,-0.1 0,-0.3 0,-0.6 0,-0.2 0.1,-0.5 0.2,-0.8 l 1,-4.7 c 0.3,-1.3 0.7,-2.1 1.1,-2.5 0.5,-0.4 1.2,-0.6 2.4,-0.6 h 5.7 L 484.7,9.3 C 485,8 485.5,7.2 486,6.7 486.5,6.2 487.6,6 489,6 h 6.3 c 1.8,0 2.7,0.8 2.7,2.3 0.3,0.6 0.2,1.2 0,2 z"
   id="path22"
   style="fill:#ffffff" />
		<path
   d="m 550.5,81.1 h -6.2 c -1.8,0 -2.7,-0.8 -2.7,-2.3 0,-0.5 0.1,-1.2 0.2,-1.9 l 0.1,-0.6 c -2.3,1.9 -4.5,3.2 -6.7,4 -2.2,0.8 -4.6,1.2 -7.3,1.2 -6,0 -10.6,-1.8 -13.9,-5.3 -3.3,-3.5 -4.9,-8.5 -4.9,-14.9 0,-2.8 0.3,-5.8 1,-9 l 1.1,-5.2 c 4,-17.5 12.9,-26.3 26.8,-26.3 3.5,0 6.5,0.6 8.9,1.9 2.4,1.3 4.1,3.1 5.1,5.4 l 0.6,-2.5 c 0.3,-1.3 0.7,-2.1 1.3,-2.6 0.6,-0.5 1.5,-0.7 3,-0.7 h 6.3 c 1.8,0 2.7,0.8 2.7,2.4 0,0.5 -0.1,1.2 -0.2,1.9 l -10.9,51.2 c -0.3,1.3 -0.7,2.1 -1.2,2.6 -0.6,0.5 -1.6,0.7 -3.1,0.7 z m -4.1,-26.4 1.6,-7.4 c 0.5,-2 0.7,-3.8 0.7,-5.4 0,-6.5 -3.2,-9.7 -9.7,-9.7 -3.8,0 -6.9,1.2 -9.2,3.6 -2.3,2.4 -4,6.2 -5,11.4 l -1.6,7.4 c -0.5,2 -0.7,3.9 -0.7,5.6 0,6.7 3.2,10.1 9.5,10.1 3.8,0 6.9,-1.3 9.2,-3.8 2.3,-2.6 4.1,-6.5 5.2,-11.8 z"
   id="path24"
   style="fill:#ffffff" />
		<path
   d="m 582.4,81.1 h -6.3 c -1.8,0 -2.7,-0.8 -2.7,-2.3 0,-0.5 0.1,-1.2 0.2,-1.9 l 9.2,-43.4 h -5.6 c -1.6,0 -2.3,-0.6 -2.3,-1.8 0,-0.1 0,-0.3 0.1,-0.6 0.1,-0.3 0.1,-0.5 0.2,-0.8 l 1,-4.7 c 0.3,-1.3 0.7,-2.1 1.1,-2.5 0.4,-0.4 1.2,-0.6 2.3,-0.6 h 5.6 l 1,-4.2 c 1.3,-5.7 3.9,-10 7.7,-12.7 3.8,-2.7 8.9,-4.1 15.5,-4.1 h 1.9 c 2.5,0 4.2,0.1 4.9,0.5 0.7,0.4 1.1,0.9 1.1,1.9 0,0.4 -0.1,1 -0.2,1.8 l -0.8,3.7 c -0.3,1.2 -0.7,2 -1.1,2.5 -0.5,0.4 -1.3,0.7 -2.5,0.7 h -3.2 c -3.2,0 -5.5,0.6 -6.9,1.7 -1.4,1.1 -2.6,3.3 -3.5,6.5 l -0.5,1.9 h 9.7 c 1.5,0 2.2,0.6 2.2,1.9 0,0.5 0,0.9 -0.1,1.2 l -1,4.7 c -0.3,1.3 -0.7,2.1 -1.1,2.5 -0.4,0.4 -1.2,0.6 -2.3,0.6 h -9.7 L 586.9,78 c -0.3,1.3 -0.8,2.1 -1.3,2.6 -0.5,0.5 -1.8,0.5 -3.2,0.5 z"
   id="path26"
   style="fill:#ffffff" />
		<path
   d="m 633.1,71.4 c 2.4,0 4.4,-0.4 6,-1.3 1.6,-0.9 3.1,-2.4 4.4,-4.5 0.7,-1.3 1.9,-1.9 3.8,-1.9 h 6 c 1.9,0 2.8,0.6 2.9,1.8 0,1.6 -0.6,3.5 -1.9,5.7 -1.3,2.2 -2.9,4.1 -4.8,5.7 -4.7,3.9 -10.2,5.8 -16.3,5.8 -14.9,0 -22.5,-6.6 -22.7,-19.9 0,-1.6 0.1,-3.1 0.2,-4.6 0.2,-1.5 0.4,-3 0.7,-4.6 l 1.2,-6.4 c 1.7,-8.6 5,-15.1 10,-19.6 4.9,-4.5 11.3,-6.7 19.1,-6.7 6.4,0 11.4,1.4 14.9,4.2 3.5,2.8 5.3,6.8 5.3,12 0,5.9 -2,10.5 -6,13.8 -4,3.3 -9.6,5 -16.7,5 H 624 c -0.5,2 -0.7,4.3 -0.7,6.9 0.1,5.8 3.4,8.6 9.8,8.6 z m 7.1,-39.7 c -7.2,0 -12,4.7 -14.2,14.2 h 11.9 c 3.5,0 6.2,-0.7 8.1,-2.1 1.9,-1.4 2.8,-3.4 2.8,-6 0,-4.1 -2.9,-6.1 -8.6,-6.1 z"
   id="path28"
   style="fill:#ffffff" />
		<path
   d="m 696.4,10.3 -2.6,12.2 h 10 c 1.5,0 2.2,0.6 2.2,1.9 0,0.6 0,1 -0.1,1.2 l -1,4.7 c -0.3,1.3 -0.7,2.1 -1.1,2.5 -0.4,0.4 -1.2,0.6 -2.3,0.6 h -9.8 l -6,28.1 c -0.3,1.6 -0.5,2.7 -0.5,3.4 0,3.1 2,4.7 5.9,4.7 h 4.9 c 1.5,0 2.2,0.7 2.2,2.1 0,0.4 0,0.8 -0.1,1 L 697,78 c -0.3,1.3 -0.8,2.2 -1.6,2.6 -0.8,0.4 -2.3,0.6 -4.7,0.6 H 689 c -5.9,0 -10.2,-1.1 -13,-3.4 -2.8,-2.3 -4.2,-5.8 -4.2,-10.7 0,-1.1 0,-2.2 0.2,-3.4 0.1,-1.2 0.3,-2.6 0.7,-4.1 l 5.6,-26.1 h -5.8 c -1.6,0 -2.3,-0.6 -2.3,-1.8 0,-0.1 0,-0.3 0,-0.6 0,-0.2 0.1,-0.5 0.2,-0.8 l 1,-4.7 c 0.3,-1.3 0.7,-2.1 1.1,-2.5 0.4,-0.4 1.2,-0.6 2.3,-0.6 h 5.7 l 2.8,-13.2 c 0.3,-1.3 0.8,-2.1 1.3,-2.6 0.5,-0.5 1.6,-0.7 3,-0.7 h 6.3 c 1.8,0 2.7,0.8 2.7,2.3 0,0.6 -0.1,1.2 -0.2,2 z"
   id="path30"
   style="fill:#ffffff" />
		<path
   d="M 737.5,10.3 735,22.5 h 10 c 1.5,0 2.2,0.6 2.2,1.9 0,0.6 0,1 -0.1,1.2 l -1,4.7 c -0.3,1.3 -0.7,2.1 -1.1,2.5 -0.4,0.4 -1.2,0.6 -2.3,0.6 h -9.8 l -6,28.1 c -0.3,1.6 -0.5,2.7 -0.5,3.4 0,3.1 2,4.7 5.9,4.7 h 4.9 c 1.5,0 2.2,0.7 2.2,2.1 0,0.4 0,0.8 -0.1,1 l -1.1,5.3 c -0.3,1.3 -0.8,2.2 -1.6,2.6 -0.8,0.4 -2.3,0.6 -4.7,0.6 h -1.7 c -5.9,0 -10.2,-1.1 -13,-3.4 -2.8,-2.3 -4.2,-5.8 -4.2,-10.7 0,-1.1 0,-2.2 0.2,-3.4 0.1,-1.2 0.3,-2.6 0.7,-4.1 l 5.6,-26.1 h -5.8 c -1.6,0 -2.3,-0.6 -2.3,-1.8 0,-0.1 0,-0.3 0,-0.6 0,-0.2 0.1,-0.5 0.2,-0.8 l 1,-4.7 c 0.3,-1.3 0.7,-2.1 1.1,-2.5 0.4,-0.4 1.2,-0.6 2.3,-0.6 h 5.7 l 2.8,-13.2 c 0.3,-1.3 0.8,-2.1 1.3,-2.6 0.5,-0.5 1.6,-0.7 3,-0.7 h 6.3 c 1.8,0 2.7,0.8 2.7,2.3 0,0.6 -0.1,1.2 -0.3,2 z"
   id="path32"
   style="fill:#ffffff" />
		<path
   d="m 771.2,71.4 c 2.4,0 4.4,-0.4 6,-1.3 1.6,-0.9 3.1,-2.4 4.4,-4.5 0.7,-1.3 1.9,-1.9 3.8,-1.9 h 6 c 1.9,0 2.8,0.6 2.9,1.8 0,1.6 -0.6,3.5 -1.9,5.7 -1.3,2.2 -2.9,4.1 -4.8,5.7 -4.7,3.9 -10.2,5.8 -16.3,5.8 -14.9,0 -22.5,-6.6 -22.7,-19.9 0,-1.6 0.1,-3.1 0.2,-4.6 0.2,-1.5 0.4,-3 0.7,-4.6 l 1.2,-6.4 c 1.7,-8.6 5,-15.1 10,-19.6 4.9,-4.5 11.3,-6.7 19.1,-6.7 6.4,0 11.4,1.4 14.9,4.2 3.5,2.8 5.3,6.8 5.3,12 0,5.9 -2,10.5 -6,13.8 -4,3.3 -9.6,5 -16.7,5 h -15.1 c -0.5,2 -0.7,4.3 -0.7,6.9 0.1,5.8 3.3,8.6 9.7,8.6 z m 7.1,-39.7 c -7.2,0 -12,4.7 -14.2,14.2 H 776 c 3.5,0 6.2,-0.7 8.1,-2.1 1.9,-1.4 2.8,-3.4 2.8,-6 0,-4.1 -2.9,-6.1 -8.6,-6.1 z"
   id="path34"
   style="fill:#ffffff" />
	</g><path
     class="st1"
     d="m 146.21673,50.322172 c -5.30635,0 -10.50866,1.66474 -14.98265,4.36995 -0.62429,0.312135 -1.35261,0.312135 -1.87284,-0.104102 -3.32948,-2.705198 -7.90753,-4.265897 -13.10985,-4.265897 -5.2023,0 -10.50867,1.664741 -14.98266,4.36995 -0.62427,0.312136 -1.352605,0.312136 -1.872835,-0.104102 -3.32949,-2.705199 -7.907517,-4.265897 -13.109837,-4.265897 -13.21387,0 -26.11561,10.196547 -28.61273,22.682102 -2.60116,12.485557 6.03469,22.682091 19.35261,22.682091 5.30636,0 10.50867,-1.66474 14.98267,-4.36995 0.62428,-0.312135 1.35261,-0.312135 1.872821,0.104102 3.329486,2.705203 7.907541,4.2659 13.109851,4.2659 5.20231,0 10.50867,-1.664739 14.98266,-4.369951 0.62428,-0.312134 1.3526,-0.312134 1.87283,0.104103 3.3295,2.705202 7.90752,4.265901 13.10984,4.265901 13.21388,0 26.11562,-10.196538 28.61274,-22.682096 2.4971,-12.485555 -6.13873,-22.682102 -19.35262,-22.682102 z"
     id="path45"
     style="fill:#ffffff;stroke-width:1.04046" /></g>
</svg>
