<?xml version="1.0" encoding="UTF-8"?><svg id="Layer_2" xmlns="http://www.w3.org/2000/svg" viewBox="0 0 211.54 117.4"><g id="Layer_1-2"><g><path d="M8.35,35.66c4.46,0,8.35,.48,11.91,3.12,3.89,2.93,6.14,7.58,6.14,12.91s-2.21,9.94-6.43,12.91c-3.74,2.64-7.25,3.07-11.71,3.07H0V35.66H8.35Zm-2.11,26.64h1.92c1.58,0,5.04-.1,7.82-2.11,2.54-1.82,3.98-5.09,3.98-8.5s-1.39-6.62-3.94-8.54c-2.59-1.92-5.76-2.11-7.87-2.11h-1.92v21.27Z"/><path d="M41.42,35.66c4.42,0,6.67,1.15,8.16,2.4,2.45,2.06,3.17,4.8,3.17,7.2,0,3.12-1.25,5.86-3.74,7.54-.82,.58-1.97,1.1-3.5,1.39l9.98,13.49h-7.78l-8.54-12.87h-.77v12.87h-6.24V35.66h9.26Zm-3.02,14.74h1.78c1.2,0,6.14-.14,6.14-4.85s-4.9-4.8-6.05-4.8h-1.87v9.65Z"/><path d="M77.47,41.04h-11.52v7.15h11.04v5.38h-11.04v8.74h11.52v5.38h-17.76V35.66h17.76v5.38Z"/><path d="M89.76,35.66v32.02h-6.24V35.66h6.24Z"/><path d="M123.98,42.96c-1.87-2.5-4.08-2.74-5.23-2.74-3.36,0-4.42,2.11-4.42,3.74,0,.77,.24,1.49,1.01,2.16,.77,.72,1.82,1.1,3.84,1.82,2.5,.86,4.85,1.73,6.48,3.22,1.44,1.3,2.74,3.46,2.74,6.72,0,6.24-4.51,10.51-11.14,10.51-5.9,0-9.36-3.6-11.04-6.05l4.08-3.89c1.54,3.12,4.46,4.27,6.72,4.27,2.83,0,4.94-1.73,4.94-4.42,0-1.15-.38-2.06-1.25-2.88-1.2-1.1-3.12-1.73-4.94-2.35-1.68-.58-3.7-1.34-5.33-2.79-1.06-.91-2.54-2.69-2.54-5.95,0-4.7,3.17-9.41,10.27-9.41,2.02,0,5.81,.38,9.07,3.74l-3.26,4.27Z"/><path d="M151.63,41.04h-11.52v7.15h11.04v5.38h-11.04v8.74h11.52v5.38h-17.76V35.66h17.76v5.38Z"/><path d="M175.44,41.04h-11.52v7.15h11.04v5.38h-11.04v8.74h11.52v5.38h-17.76V35.66h17.76v5.38Z"/><path d="M181.49,67.68V35.66h4.32l19.49,21.36v-21.36h6.24v32.02h-4.32l-19.49-21.41v21.41h-6.24Z"/><path d="M29.11,91.96c-1.87-2.5-4.08-2.74-5.23-2.74-3.36,0-4.42,2.11-4.42,3.74,0,.77,.24,1.49,1.01,2.16,.77,.72,1.82,1.1,3.84,1.82,2.5,.86,4.85,1.73,6.48,3.22,1.44,1.3,2.74,3.46,2.74,6.72,0,6.24-4.51,10.51-11.14,10.51-5.9,0-9.36-3.6-11.04-6.05l4.08-3.89c1.54,3.12,4.46,4.27,6.72,4.27,2.83,0,4.94-1.73,4.94-4.42,0-1.15-.38-2.06-1.25-2.88-1.2-1.1-3.12-1.73-4.94-2.35-1.68-.58-3.7-1.34-5.33-2.79-1.06-.91-2.54-2.69-2.54-5.95,0-4.7,3.17-9.41,10.27-9.41,2.02,0,5.81,.38,9.07,3.75l-3.26,4.27Z"/><path d="M48.6,90.04v26.64h-6.24v-26.64h-7.2v-5.38h20.64v5.38h-7.2Z"/><path d="M76.83,109.96h-12.91l-2.83,6.72h-6.77l13.78-32.02h4.9l13.39,32.02h-6.72l-2.83-6.72Zm-1.82-5.09l-4.56-11.52-4.56,11.52h9.12Z"/><path d="M107.11,90.04h-10.75v7.15h10.08v5.38h-10.08v14.11h-6.24v-32.02h16.99v5.38Z"/><path d="M130.25,90.04h-11.52v7.15h11.04v5.38h-11.04v8.74h11.52v5.38h-17.76v-32.02h17.76v5.38Z"/><path d="M147.38,90.04v26.64h-6.24v-26.64h-7.2v-5.38h20.64v5.38h-7.2Z"/><path d="M170.52,90.04v26.64h-6.24v-26.64h-7.2v-5.38h20.64v5.38h-7.2Z"/><path d="M199.41,90.04h-11.52v7.15h11.04v5.38h-11.04v8.74h11.52v5.38h-17.76v-32.02h17.76v5.38Z"/></g><g><path d="M51.67,.36c2.21,0,3.34,.58,4.08,1.2,1.22,1.03,1.58,2.4,1.58,3.6,0,1.56-.62,2.93-1.87,3.77-.41,.29-.98,.55-1.75,.7l4.99,6.74h-3.89l-4.27-6.43h-.38v6.43h-3.12V.36h4.63Zm-1.51,7.37h.89c.6,0,3.07-.07,3.07-2.42s-2.45-2.4-3.02-2.4h-.94V7.73Z"/><path d="M70.3,13.01h-6.46l-1.42,3.36h-3.38L65.93,.36h2.45l6.7,16.01h-3.36l-1.42-3.36Zm-.91-2.54l-2.28-5.76-2.28,5.76h4.56Z"/><path d="M80.06,.36V16.37h-3.12V.36h3.12Z"/><path d="M92.21,3.05h-5.38v3.58h5.04v2.69h-5.04v7.06h-3.12V.36h8.5V3.05Z"/><path d="M103.39,3.05h-5.38v3.58h5.04v2.69h-5.04v7.06h-3.12V.36h8.5V3.05Z"/><path d="M114.96,3.05h-5.76v3.58h5.52v2.69h-5.52v4.37h5.76v2.69h-8.88V.36h8.88V3.05Z"/><path d="M121.1,.36V16.37h-3.12V.36h3.12Z"/><path d="M132.62,4.01c-.94-1.25-2.04-1.37-2.62-1.37-1.68,0-2.21,1.06-2.21,1.87,0,.38,.12,.74,.5,1.08,.38,.36,.91,.55,1.92,.91,1.25,.43,2.42,.86,3.24,1.61,.72,.65,1.37,1.73,1.37,3.36,0,3.12-2.26,5.26-5.57,5.26-2.95,0-4.68-1.8-5.52-3.02l2.04-1.94c.77,1.56,2.23,2.14,3.36,2.14,1.42,0,2.47-.86,2.47-2.21,0-.58-.19-1.03-.62-1.44-.6-.55-1.56-.86-2.47-1.18-.84-.29-1.85-.67-2.66-1.39-.53-.46-1.27-1.34-1.27-2.98,0-2.35,1.58-4.7,5.14-4.7,1.01,0,2.9,.19,4.54,1.87l-1.63,2.14Z"/><path d="M146.45,3.05h-5.76v3.58h5.52v2.69h-5.52v4.37h5.76v2.69h-8.88V.36h8.88V3.05Z"/><path d="M149.47,16.37V.36h2.16l9.74,10.68V.36h3.12V16.37h-2.16l-9.75-10.71v10.71h-3.12Z"/></g></g></svg>