<?xml version="1.0" encoding="UTF-8"?>
<svg id="Ebene_1" data-name="Ebene 1" xmlns="http://www.w3.org/2000/svg" viewBox="0 0 162.16 48.73">
  <defs>
    <style>
      .cls-1 {
        fill: #ef3744;
      }

      .cls-2 {
        fill: #231f20;
      }
    </style>
  </defs>
  <g>
    <path class="cls-2" d="m7.2,45.56c-.35.25-1.02.77-2.54.77-2.19,0-3.98-1.2-3.98-4.28s2.01-4.28,4.09-4.28c1.57,0,2.25.62,2.57.86l-.72,1.27c-.29-.25-.78-.65-1.74-.65-1.32,0-2.48.76-2.48,2.79s1.02,2.81,2.42,2.81c.31,0,.59-.04.82-.08v-1.94h-1.1v-1.31h2.67v4.04Z"/>
    <path class="cls-2" d="m10.85,40.13c1.44,0,2.3.86,2.3,2.96v.56h-3.3c.11.92.58,1.34,1.42,1.34.76,0,1.2-.37,1.37-.53l.54,1.04c-.25.26-.83.82-2.07.82-1.64,0-2.83-.91-2.83-3.19,0-2,1.19-3.01,2.58-3.01Zm-1,2.49h1.9c0-.74-.26-1.16-.88-1.16-.54,0-.95.42-1.02,1.16Z"/>
    <path class="cls-2" d="m15.79,40.85h.02c.23-.25.66-.72,1.64-.72,1.12,0,1.82.66,1.82,2.23v3.83h-1.62v-3.57c0-.76-.24-1.09-.84-1.09-.46,0-.77.25-.95.46v4.21h-1.61v-5.91h1.52v.58Z"/>
    <path class="cls-2" d="m22.93,40.13c1.44,0,2.3.86,2.3,2.96v.56h-3.3c.11.92.58,1.34,1.42,1.34.76,0,1.2-.37,1.37-.53l.54,1.04c-.25.26-.83.82-2.07.82-1.64,0-2.83-.91-2.83-3.19,0-2,1.19-3.01,2.58-3.01Zm-1,2.49h1.9c0-.74-.26-1.16-.88-1.16-.54,0-.95.42-1.02,1.16Z"/>
    <path class="cls-2" d="m29.49,41.55s-.12-.01-.28-.01c-.6,0-1.02.29-1.27.74v3.91h-1.61v-5.91h1.52v.82h.02c.2-.5.53-.93,1.61-.93v1.39Z"/>
    <path class="cls-2" d="m35.86,46.14c-.07.04-.34.17-.78.17-.66,0-1.13-.2-1.37-.66-.25.3-.72.68-1.54.68-1.42,0-2.25-.98-2.25-3.01,0-2.29,1.42-3.19,3.14-3.19,1.13,0,1.79.32,2.09.48v3.86c0,.43.14.58.44.58.14,0,.24-.04.26-.05v1.14Zm-2.33-1.6v-2.93c-.16-.07-.35-.12-.65-.12-.72,0-1.32.42-1.32,1.76,0,1.24.41,1.68,1.1,1.68.48,0,.73-.22.86-.4Z"/>
    <path class="cls-2" d="m38.49,46.19h-1.62v-8.52h1.62v8.52Z"/>
    <path class="cls-2" d="m45.59,46.14c-.07.04-.34.17-.78.17-.66,0-1.13-.2-1.37-.66-.25.3-.72.68-1.54.68-1.42,0-2.25-.98-2.25-3.01,0-2.29,1.42-3.19,3.14-3.19,1.13,0,1.79.32,2.09.48v3.86c0,.43.14.58.44.58.14,0,.24-.04.26-.05v1.14Zm-2.33-1.6v-2.93c-.16-.07-.35-.12-.65-.12-.72,0-1.32.42-1.32,1.76,0,1.24.41,1.68,1.1,1.68.48,0,.73-.22.86-.4Z"/>
    <path class="cls-2" d="m49.44,40.13c1.13,0,1.78.34,2.08.48v5.01c0,2.16-.9,3.11-2.95,3.11-1.26,0-1.9-.48-2.24-.78l.58-1.28c.23.23.76.68,1.56.68,1.07,0,1.45-.52,1.45-1.59v-.22h-.02c-.12.17-.44.68-1.45.68-1.24,0-2.12-.9-2.12-2.94,0-2.31,1.38-3.15,3.13-3.15Zm-.42,4.73c.49,0,.72-.23.89-.42v-2.82c-.17-.07-.36-.12-.66-.12-.72,0-1.29.46-1.29,1.71s.43,1.64,1.07,1.64Z"/>
    <path class="cls-2" d="m55.17,40.13c1.44,0,2.3.86,2.3,2.96v.56h-3.3c.11.92.58,1.34,1.42,1.34.76,0,1.2-.37,1.37-.53l.54,1.04c-.25.26-.83.82-2.07.82-1.64,0-2.83-.91-2.83-3.19,0-2,1.19-3.01,2.58-3.01Zm-1,2.49h1.9c0-.74-.26-1.16-.88-1.16-.54,0-.95.42-1.02,1.16Z"/>
    <path class="cls-2" d="m60.1,40.85h.02c.23-.25.66-.72,1.64-.72,1.12,0,1.82.66,1.82,2.23v3.83h-1.62v-3.57c0-.76-.24-1.09-.84-1.09-.46,0-.77.25-.95.46v4.21h-1.61v-5.91h1.52v.58Z"/>
    <path class="cls-2" d="m67.98,41.61h-1.2v2.41c0,.77.3.91.78.91.2,0,.35-.04.42-.06v1.31c-.1.04-.41.13-.83.13-1.22,0-1.99-.48-1.99-2.08v-2.63h-.66v-1.33h.66v-1.32h1.62v1.32h1.2v1.33Z"/>
    <path class="cls-2" d="m74.01,46.19h-1.52v-.58h-.02c-.18.24-.5.72-1.63.72s-1.81-.64-1.81-2.22v-3.84h1.61v3.59c0,.78.24,1.08.84,1.08.5,0,.77-.26.92-.46v-4.21h1.62v5.91Z"/>
    <path class="cls-2" d="m78.53,41.55s-.12-.01-.28-.01c-.6,0-1.02.29-1.27.74v3.91h-1.61v-5.91h1.52v.82h.02c.2-.5.53-.93,1.61-.93v1.39Z"/>
    <path class="cls-2" d="m87.57,39.38h-3.35v2.39h3.02v1.45h-3.02v2.97h-1.69v-8.28h5.04v1.46Z"/>
    <path class="cls-2" d="m91.48,41.55s-.12-.01-.28-.01c-.6,0-1.02.29-1.27.74v3.91h-1.61v-5.91h1.52v.82h.02c.2-.5.53-.93,1.61-.93v1.39Z"/>
    <path class="cls-2" d="m97.85,46.14c-.07.04-.34.17-.78.17-.66,0-1.13-.2-1.37-.66-.25.3-.72.68-1.54.68-1.42,0-2.25-.98-2.25-3.01,0-2.29,1.42-3.19,3.14-3.19,1.13,0,1.79.32,2.09.48v3.86c0,.43.14.58.44.58.14,0,.24-.04.26-.05v1.14Zm-2.33-1.6v-2.93c-.16-.07-.35-.12-.65-.12-.72,0-1.32.42-1.32,1.76,0,1.24.41,1.68,1.1,1.68.48,0,.73-.22.86-.4Z"/>
    <path class="cls-2" d="m103.71,46.19h-1.52v-.58h-.02c-.18.24-.5.72-1.63.72s-1.81-.64-1.81-2.22v-3.84h1.61v3.59c0,.78.24,1.08.84,1.08.5,0,.77-.26.92-.46v-4.21h1.62v5.91Z"/>
    <path class="cls-2" d="m107.36,40.13c1.44,0,2.3.86,2.3,2.96v.56h-3.3c.11.92.58,1.34,1.42,1.34.76,0,1.2-.37,1.37-.53l.54,1.04c-.25.26-.83.82-2.08.82-1.64,0-2.83-.91-2.83-3.19,0-2,1.19-3.01,2.58-3.01Zm-1,2.49h1.89c0-.74-.26-1.16-.88-1.16-.54,0-.95.42-1.02,1.16Z"/>
    <path class="cls-2" d="m112.29,40.85h.02c.23-.25.66-.72,1.64-.72,1.12,0,1.82.66,1.82,2.23v3.83h-1.62v-3.57c0-.76-.24-1.09-.84-1.09-.46,0-.77.25-.95.46v4.21h-1.61v-5.91h1.52v.58Z"/>
    <path class="cls-2" d="m120.27,39.02c-.06-.02-.16-.06-.36-.06-.48,0-.83.22-.83.88v.44h1.19v1.33h-1.19v4.58h-1.61v-4.58h-.67v-1.33h.67v-.52c0-1.45.94-2.16,2.16-2.16.37,0,.55.06.64.08v1.33Z"/>
    <path class="cls-2" d="m123.29,40.13c1.44,0,2.3.86,2.3,2.96v.56h-3.3c.11.92.58,1.34,1.42,1.34.76,0,1.2-.37,1.37-.53l.54,1.04c-.25.26-.83.82-2.08.82-1.64,0-2.83-.91-2.83-3.19,0-2,1.19-3.01,2.58-3.01Zm-1,2.49h1.89c0-.74-.26-1.16-.88-1.16-.54,0-.95.42-1.02,1.16Z"/>
    <path class="cls-2" d="m128.38,46.19h-1.62v-8.52h1.62v8.52Z"/>
    <path class="cls-2" d="m134.79,46.19h-1.54v-.58h-.02c-.14.23-.44.72-1.46.72-1.31,0-2.2-.94-2.2-3.08s1.03-3.12,2.3-3.12c.84,0,1.15.46,1.27.65h.02v-3.11h1.62v8.52Zm-2.48-1.25c.49,0,.73-.26.86-.43v-2.54c-.12-.17-.35-.44-.85-.44-.61,0-1.1.49-1.1,1.71s.47,1.7,1.09,1.7Z"/>
  </g>
  <g>
    <path class="cls-1" d="m38.45,8.09c-.74-.71-1.76-1.07-3.05-1.07s-2.46.28-3.52.84c-1.05.56-1.95,1.27-2.66,2.13-.99,1.18-1.69,2.59-2.08,4.19-.39,1.6-.59,3.19-.59,4.74,0,1.92.42,3.43,1.24,4.49.83,1.07,2.06,1.61,3.66,1.61,1.33,0,2.54-.24,3.59-.7,1.05-.46,1.93-.99,2.62-1.59h.01s0-.03,0-.03c.12-.26.22-.58.31-.93.08-.36.13-.71.13-1.04v-.18l-.15.1c-.37.25-.78.48-1.24.68-.45.2-.91.36-1.38.51-.49.15-.95.26-1.39.33-.45.08-.87.12-1.24.12-1.91,0-2.84-1.38-2.84-4.22v-.97c1.94-.08,3.56-.3,4.79-.67,1.26-.38,2.26-.85,2.98-1.41.71-.56,1.22-1.2,1.5-1.9.27-.69.41-1.4.41-2.12,0-1.22-.37-2.2-1.1-2.91m-2.15,4.36c-.14.41-.43.78-.87,1.12-.45.35-1.11.64-1.96.87-.84.23-1.94.37-3.37.42.09-.61.22-1.22.39-1.82.17-.62.42-1.21.75-1.74.39-.67.91-1.2,1.53-1.59.62-.39,1.29-.59,2-.59.63,0,1.07.19,1.34.58.27.4.41.9.41,1.49,0,.44-.07.86-.21,1.28"/>
    <path class="cls-1" d="m22.41,5.03c.56,0,1.04-.19,1.43-.57.38-.38.57-.92.57-1.6,0-.63-.19-1.14-.56-1.5-.37-.36-.85-.54-1.44-.54s-1.05.19-1.44.57c-.39.38-.59.87-.59,1.46,0,1.44.69,2.18,2.04,2.18"/>
    <path class="cls-1" d="m21.67,22.06c-.04-.17-.05-.24-.05-.25l1.78-14.42-.07-.02c-.15-.05-.38-.09-.71-.11-.34-.03-.58-.04-.77-.04-.73,0-1.41.09-2,.25-.59.17-1.11.36-1.56.59-.18.18-.33.49-.46.92-.13.44-.2.75-.2.94v.1l2.56-.28-1.82,12.54c0,.32.12.74.38,1.28.25.52.54.99.88,1.4l.03.03h.04c.26,0,.58-.03.95-.07.35-.04.72-.1,1.13-.17.38-.07.76-.15,1.15-.25.38-.09.72-.2,1-.32h.03s.01-.04.01-.04c.15-.24.28-.58.4-1,.12-.42.18-.76.18-1.03v-.1l-2.8.29c-.03-.06-.06-.14-.08-.24"/>
    <path class="cls-1" d="m13.02,21.98c-.02-.09-.05-.27-.05-.3L15.63.17l-.07-.02c-.15-.05-.39-.09-.71-.11-.32-.02-.57-.03-.76-.03-.71,0-1.38.08-1.97.25-.6.17-1.12.36-1.56.59-.17.18-.33.49-.46.92-.13.44-.2.74-.2.94v.1l2.53-.28-.71,5.12c-.42-.17-.85-.32-1.28-.44-.48-.13-.97-.2-1.47-.2-1.4,0-2.68.33-3.8.98-1.13.65-2.08,1.53-2.84,2.62-.75,1.06-1.34,2.31-1.73,3.7-.39,1.4-.58,2.86-.58,4.33,0,1.13.12,2.11.36,2.91.24.8.57,1.45.99,1.96.42.5.92.88,1.5,1.12.57.24,1.21.36,1.91.36.88,0,1.81-.2,2.77-.61.95-.4,1.79-1.07,2.5-2.01h.05c.07.41.19.85.34,1.31.16.49.34.91.54,1.25l.03.05h.05c.24,0,.54-.03.91-.07.35-.04.72-.1,1.14-.17.38-.07.77-.15,1.15-.25.38-.09.72-.2,1-.32h.03s.02-.04.02-.04c.14-.24.28-.57.4-.98.12-.4.18-.74.18-1.01v-.1l-2.75.25c-.03-.08-.06-.19-.09-.33m-9.71-5.36c.06-.57.15-1.15.26-1.72.11-.57.27-1.15.47-1.7.19-.53.43-1.02.72-1.45.46-.71,1.06-1.33,1.78-1.85.71-.5,1.56-.76,2.53-.76.39,0,.82.06,1.27.18.42.11.78.25,1.07.42l-1.32,10.15c-.46.81-1.04,1.42-1.72,1.84-.68.41-1.39.62-2.12.62-.91,0-1.64-.32-2.19-.96-.55-.64-.83-1.71-.83-3.19,0-.48.03-1.01.09-1.58"/>
    <path class="cls-1" d="m157.19,24.62h-4.98V7.49h4.04l.7,1.68c.64-1.12,1.77-2.02,4.38-2.02h.82l-.63,4.24s-.6-.05-1.03-.05c-1.48,0-2.59.82-3.31,2.08v11.2Z"/>
    <path class="cls-1" d="m80.54,11.46c-1.75,0-2.72,1.64-2.72,4.61s.96,4.58,2.72,4.58,2.72-1.58,2.72-4.58-.94-4.61-2.72-4.61m0,13.56c-5.76,0-7.8-4.82-7.8-8.95,0-6.62,4.03-8.99,7.8-8.99s7.8,2.36,7.8,8.99-4.03,8.95-7.8,8.95"/>
    <path class="cls-1" d="m95.9,20.34c.36.21.88.41,1.81.41,1.39,0,3.23-.51,3.23-4.92,0-2.94-.9-4.37-2.75-4.37-.86,0-1.63.36-2.28,1.08v7.8Zm1.54,4.68c-3.73,0-5.61-1.31-6.42-1.87l-.1-.07V.83l4.98-.68v8.61c.73-.75,2.04-1.67,4.08-1.67,3.84,0,6.04,2.97,6.04,8.14,0,6.5-2.89,9.8-8.58,9.8"/>
    <path class="cls-1" d="m111.31,5.93c-1.59,0-2.54-.93-2.54-2.48v-.15c0-1.56.93-2.45,2.54-2.45s2.54.89,2.54,2.45v.15c0,1.55-.95,2.48-2.54,2.48m2.49,18.69h-4.98V7.49h4.98v17.13Z"/>
    <polygon class="cls-1" points="117.42 24.62 122.43 24.62 122.43 .15 117.42 .85 117.42 24.62"/>
    <path class="cls-1" d="m128.54,5.93c-1.59,0-2.54-.93-2.54-2.48v-.15c0-1.56.93-2.45,2.54-2.45s2.54.89,2.54,2.45v.15c0,1.55-.95,2.48-2.54,2.48m2.49,18.69h-4.98V7.49h4.98v17.13Z"/>
    <path class="cls-1" d="m143.92,19.68c-.5.64-1.24.97-2.21.97-1.35,0-2.89-.51-2.89-4.51,0-3.15,1.17-4.75,3.5-4.75.66,0,1.16.08,1.6.26v8.03Zm4.9-11.22c-.72-.38-2.65-1.38-5.99-1.38-5.77,0-9.08,3.36-9.08,9.22s2.34,8.72,6.58,8.72c1.39,0,2.9-.42,3.7-1.44.11-.14.18-.27.18-.27l.54,1.29h4.18V8.52l-.11-.06Z"/>
    <polygon class="cls-1" points="63.92 .83 58.11 16.43 52.34 .83 46.99 .83 45.44 24.61 50.46 24.61 51.22 11.72 56.2 24.61 59.99 24.61 64.93 11.72 65.69 24.61 70.74 24.61 69.19 .83 63.92 .83"/>
  </g>
</svg>