<?xml version="1.0" encoding="utf-8"?>
<!-- Generator: Adobe Illustrator 27.7.0, SVG Export Plug-In . SVG Version: 6.00 Build 0)  -->
<svg version="1.1" id="Layer_1" xmlns="http://www.w3.org/2000/svg" xmlns:xlink="http://www.w3.org/1999/xlink" x="0px" y="0px"
	 viewBox="0 0 340.2 133.2" style="enable-background:new 0 0 340.2 133.2;" xml:space="preserve">
<style type="text/css">
	.st0{fill:#EE2624;}
	.st1{fill:#231F20;}
</style>
<path class="st0" d="M223.1,63.3c0,0,2.5,2.2,7.5,2.2c4,0,5.9-2.4,5.9-5.2s-2.4-4.4-4.7-5.6l-3.1-1.7c-5-2.7-7.2-6.1-7.2-10.3
	c0-7.5,5.1-12.2,12.3-12.2c5.9,0,9.4,2,9.4,2l-1.5,6.6c-1.9-1.7-4.3-2.2-6.8-2.2c-3.5,0-5.5,2.2-5.5,5c0,2.2,1.2,3.5,3.2,4.5l3.9,2
	c6.1,3.2,8.2,6.5,8.2,11.2c0,7.7-5.5,12.4-13.8,12.4c-6.2,0-9.4-1.8-9.4-1.8L223.1,63.3L223.1,63.3L223.1,63.3z M80.2,58l-3.6-12.7
	c-0.5-1.8-1.1-4.6-1.1-4.6s-0.6,2.8-1.1,4.6L70.8,58L80.2,58L80.2,58z M92.5,71.3h-8.8l-2.1-7.5H69.3l-2.1,7.5h-7.4l10.6-35.1
	c0.3-1,0.5-1.5,0.5-2.1c0-1.6-1.1-3-1.1-3h9.7L92.5,71.3L92.5,71.3L92.5,71.3z M196.1,64.6l-1.6,6.7h-20.1V31.1h21.2l-1.6,6.6h-11.7
	v10h11.3l-1.6,6.5h-9.7v10.4L196.1,64.6L196.1,64.6z M98,31.1h7.9v40.2H98V31.1L98,31.1z M153.5,54.2v17.1h-8V31.1h21.2l-1.5,6.6
	h-11.7v10h11.2l-1.5,6.5H153.5z M124.7,54.2v17.1h-7.9V31.1h21.2l-1.5,6.6h-11.8v10H136l-1.5,6.5H124.7L124.7,54.2z M274.6,64.6
	l-1.6,6.7h-20.1V31.1h21.2l-1.5,6.6h-11.8v10H272l-1.5,6.5h-9.7v10.4L274.6,64.6L274.6,64.6z M204.9,31.1h7.9v40.3h-7.9V31.1
	C204.9,31.1,204.9,31.1,204.9,31.1z M35.9,71.3h-8V30.7c6.4,0,10.2-0.4,13.3-0.4c8.2,0,14.2,3.6,14.2,12.3c0,5.3-3.2,9.4-7.9,10.7
	c0,0,1.2,1.4,2,3.1l6.9,14.9h-8.9l-7.7-16.5c-2-4.2-3.2-5-3.2-5c0.8,0.1,1.5,0.1,2.2,0.1c5.8,0,8.5-2.6,8.5-6.9s-3-6.1-7.5-6.1
	c-2.3,0-4,0.2-4,0.2L35.9,71.3L35.9,71.3L35.9,71.3z M311.4,71.3h-3.2l-13-19.4c-2.5-3.7-5-7.8-5-7.8s0.1,4.1,0.1,7.8v19.4h-6.6
	V37.7c0-1.7-0.2-2.7-0.7-3.9c-0.7-1.6-1.9-2.7-1.9-2.7h9.3l9.4,13.7c2.5,3.6,5.2,7.9,5.2,7.9s-0.2-4.2-0.2-7.9V31.1h6.6L311.4,71.3
	L311.4,71.3L311.4,71.3z"/>
<path class="st1" d="M40.5,104.9l-1.8-4.8c-0.4-1.2-1-1.8-2.2-2.1c1.8-0.3,3.2-1.5,3.2-3.4c0-2.8-2.4-3.7-4.8-3.7h-5.7v14h3v-5.8
	h1.1c1.5,0,1.8,0.4,2.3,1.8l1.5,4H40.5L40.5,104.9z M36.5,94.9c0,1.7-1.5,2.1-2.9,2.1h-1.4V93h1.5C35.2,93,36.5,93.3,36.5,94.9
	C36.5,94.9,36.5,94.9,36.5,94.9z M51.1,104.9c-0.1-0.7-0.1-1.4-0.1-2.5v-4.2c0-3.1-2-4.1-4.9-4.1c-1.2,0-2.6,0.3-3.7,0.7l0.1,1.9
	c1-0.6,2.1-0.8,3.2-0.8c1.5,0,2.5,0.6,2.5,2.1v0.4c-0.4,0-0.9,0-1.3,0c-3,0-5.7,0.9-5.7,3.7c0,2.1,1.6,3.1,3.6,3.1
	c1.3,0,2.7-0.7,3.4-1.9l0.1,1.6C48.3,104.9,51.1,104.9,51.1,104.9z M48.2,100.4c0,1.6-0.6,2.9-2.4,2.9c-0.9,0-1.7-0.4-1.7-1.4
	c0-1.8,2.3-2,3.8-2h0.4L48.2,100.4L48.2,100.4L48.2,100.4z M56.3,92.4v-2.3h-2.9v2.3H56.3z M56.3,104.9V94.4h-2.9v10.5H56.3z
	 M65.2,89.8c-0.6-0.2-1.4-0.2-2.1-0.2c-2.7,0-3.4,1.7-3.4,3.7v1.1h-2v1.9h2v8.6h2.9v-8.6h2.2v-1.9h-2.3v-1.1c0-0.6,0.2-1.8,1.4-1.8
	c0.3,0,0.7,0,1,0.2L65.2,89.8L65.2,89.8L65.2,89.8z M73.2,89.8c-0.6-0.2-1.4-0.2-2.1-0.2c-2.7,0-3.4,1.7-3.4,3.7v1.1h-1.9v1.9h1.9
	v8.6h2.9v-8.6H73v-1.9h-2.3v-1.1c0-0.6,0.2-1.8,1.4-1.8c0.3,0,0.7,0,1,0.2L73.2,89.8L73.2,89.8L73.2,89.8z M83.5,100.4v-0.7
	c0-3.2-1.3-5.6-4.7-5.6c-3.1,0-5.2,2.3-5.2,5.4c0,3.5,1.9,5.5,5.4,5.5c1.3,0,2.7-0.2,3.9-0.6l-0.1-1.9c-0.9,0.5-2.2,0.7-3.2,0.7
	c-1.8,0-3.1-1.1-3.2-3L83.5,100.4L83.5,100.4z M80.9,98.8h-4.3c0-1.2,0.7-2.9,2.3-2.9S80.9,97.5,80.9,98.8L80.9,98.8z M88.4,92.4
	v-2.3h-2.9v2.3H88.4z M88.4,104.9V94.4h-2.9v10.5H88.4z M98.4,101.8c0-3.6-5.3-2.9-5.3-4.6c0-1.1,1.1-1.3,1.9-1.3
	c0.9,0,1.9,0.2,2.8,0.6l0.1-1.9c-1-0.3-2.1-0.5-3.1-0.5c-1.9,0-4.5,0.8-4.5,3.2c0,3.4,5.3,2.6,5.3,4.7c0,1-1,1.3-2,1.3
	c-1.1,0-2.2-0.2-3.2-0.7l-0.1,2c1.1,0.4,2.3,0.5,3.5,0.5C96.1,105.1,98.4,104.2,98.4,101.8L98.4,101.8L98.4,101.8z M109.6,100.4
	v-0.7c0-3.2-1.3-5.6-4.7-5.6c-3,0-5.2,2.3-5.2,5.4c0,3.5,1.9,5.5,5.4,5.5c1.3,0,2.7-0.2,3.9-0.6l-0.1-1.9c-0.9,0.5-2.2,0.7-3.2,0.7
	c-1.8,0-3.1-1.1-3.2-3L109.6,100.4L109.6,100.4z M106.9,98.8h-4.3c0-1.2,0.7-2.9,2.3-2.9S106.9,97.5,106.9,98.8L106.9,98.8z
	 M121.2,104.9v-6.8c0-2.4-1-3.9-3.6-3.9c-1.5,0-2.7,0.7-3.4,2l0-1.8h-2.7c0.1,0.8,0.1,1.6,0.1,2.3v8.2h2.9v-5.8
	c0-1.4,0.5-2.9,2.1-2.9s1.8,1.3,1.8,2.5v6.2L121.2,104.9L121.2,104.9z M134.1,99.6c0-2.8-1.2-5.4-4.4-5.4c-1.3,0-2.7,0.7-3.2,1.9
	v-6.3h-2.9v15.1h2.7l0-1.7c0.7,1.3,1.9,1.9,3.3,1.9C132.9,105.1,134.1,102.4,134.1,99.6C134.1,99.6,134.1,99.6,134.1,99.6z
	 M131,99.6c0,1.5-0.4,3.5-2.3,3.5s-2.3-2.1-2.3-3.5s0.5-3.4,2.3-3.4S131,98.1,131,99.6L131,99.6z M145.1,104.9
	c-0.1-0.7-0.1-1.4-0.1-2.5v-4.2c0-3.1-2-4.1-4.9-4.1c-1.1,0-2.6,0.3-3.7,0.7l0.1,1.9c1-0.6,2.1-0.8,3.2-0.8c1.5,0,2.5,0.6,2.5,2.1
	v0.4c-0.4,0-0.9,0-1.3,0c-3,0-5.6,0.9-5.6,3.7c0,2.1,1.6,3.1,3.6,3.1c1.3,0,2.6-0.7,3.4-1.9l0.1,1.6L145.1,104.9L145.1,104.9z
	 M142.2,100.4c0,1.6-0.6,2.9-2.4,2.9c-0.9,0-1.7-0.4-1.7-1.4c0-1.8,2.3-2,3.8-2h0.4L142.2,100.4L142.2,100.4L142.2,100.4z
	 M157.1,104.9v-6.8c0-2.4-1-3.9-3.6-3.9c-1.5,0-2.7,0.7-3.4,2l0-1.8h-2.7c0.1,0.8,0.1,1.6,0.1,2.3v8.2h2.9v-5.8
	c0-1.4,0.5-2.9,2.1-2.9s1.8,1.3,1.8,2.5v6.2L157.1,104.9L157.1,104.9z M170.2,104.9l-4.7-5.8l4.3-4.7h-3.4l-3.8,4.3v-8.9h-2.9v15.1
	h2.9v-5.4l4.1,5.4L170.2,104.9L170.2,104.9z M187.2,100.9c0-2.2-1.4-3.2-3.2-3.9l-1.5-0.6c-0.9-0.4-2.1-0.9-2.1-1.8
	c0-1.4,1.6-1.7,2.8-1.7c1.1,0,2.2,0.2,3.2,0.6l0.1-2.3c-1.1-0.3-2.3-0.4-3.5-0.4c-2.6,0-5.7,1-5.7,4c0,1.9,1.2,2.9,2.9,3.6l1.4,0.6
	c1,0.4,2.5,1,2.5,2.1c0,1.5-1.4,1.9-2.7,1.9s-2.7-0.2-3.9-0.8l-0.1,2.4c1.4,0.4,2.9,0.6,4.3,0.6
	C184.4,105.1,187.2,103.9,187.2,100.9L187.2,100.9L187.2,100.9z M198.5,100.4v-0.7c0-3.2-1.3-5.6-4.7-5.6c-3,0-5.1,2.3-5.1,5.4
	c0,3.5,1.9,5.5,5.4,5.5c1.3,0,2.7-0.2,3.9-0.6l-0.1-1.9c-0.9,0.5-2.2,0.7-3.2,0.7c-1.8,0-3.1-1.1-3.1-3L198.5,100.4L198.5,100.4z
	 M195.9,98.8h-4.4c0-1.2,0.7-2.9,2.3-2.9S195.9,97.5,195.9,98.8L195.9,98.8L195.9,98.8z M209.8,100.4v-0.7c0-3.2-1.3-5.6-4.7-5.6
	c-3,0-5.1,2.3-5.1,5.4c0,3.5,1.9,5.5,5.4,5.5c1.3,0,2.7-0.2,3.9-0.6l-0.1-1.9c-0.9,0.5-2.2,0.7-3.2,0.7c-1.8,0-3.1-1.1-3.1-3
	L209.8,100.4L209.8,100.4z M207.1,98.8h-4.4c0-1.2,0.7-2.9,2.3-2.9S207.1,97.5,207.1,98.8L207.1,98.8L207.1,98.8z M218.2,94.2
	c-0.3-0.1-0.6-0.1-0.8-0.1c-1.4,0-2.5,1.1-3,2.3l-0.1-2h-2.7c0.1,0.8,0.1,1.6,0.1,2.3v8.2h2.9v-4.7c0-1.6,0.6-3.5,2.6-3.5
	c0.3,0,0.6,0,0.9,0.2L218.2,94.2C218.2,94.2,218.2,94.2,218.2,94.2z M227.6,92.4v-2.3h-2.3v2.3H227.6z M223.5,92.4v-2.3h-2.2v2.3
	H223.5z M229.4,104.9c-0.1-0.7-0.1-1.4-0.1-2.3v-8.2h-2.9v5.8c0,1.4-0.5,2.9-2.1,2.9s-1.7-1.2-1.7-2.5v-6.2h-2.9v6.8
	c0,2.4,1,3.9,3.6,3.9c1.5,0,2.7-0.7,3.4-2.1l0.1,1.8L229.4,104.9L229.4,104.9z M239.9,104.7l-0.1-2.1c-0.7,0.4-1.5,0.5-2.3,0.5
	c-2.1,0-3.2-1.6-3.2-3.6s1.2-3.5,3.3-3.5c0.8,0,1.5,0.2,2.2,0.5l0.1-2.1c-1-0.3-2-0.4-3-0.4c-3.3,0-5.7,2-5.7,5.4s2.1,5.5,5.6,5.5
	C237.8,105.1,238.9,105,239.9,104.7L239.9,104.7L239.9,104.7z M252.3,104.9l-4.7-5.8l4.3-4.7h-3.4l-3.8,4.3v-8.9h-2.9v15.1h2.9v-5.4
	l4.1,5.4L252.3,104.9L252.3,104.9z M262.2,100.4v-0.7c0-3.2-1.3-5.6-4.7-5.6c-3.1,0-5.1,2.3-5.1,5.4c0,3.5,1.9,5.5,5.4,5.5
	c1.3,0,2.7-0.2,3.9-0.6l-0.1-1.9c-0.9,0.5-2.2,0.7-3.2,0.7c-1.8,0-3.1-1.1-3.1-3L262.2,100.4L262.2,100.4z M259.6,98.8h-4.4
	c0-1.2,0.7-2.9,2.3-2.9C259.1,95.9,259.6,97.5,259.6,98.8L259.6,98.8z M273.8,104.9v-6.8c0-2.4-1-3.9-3.6-3.9c-1.5,0-2.7,0.7-3.4,2
	l0-1.8H264c0.1,0.8,0.1,1.6,0.1,2.3v8.2h2.9v-5.8c0-1.4,0.5-2.9,2.1-2.9s1.8,1.3,1.8,2.5v6.2L273.8,104.9L273.8,104.9z"/>
</svg>
