<?xml version="1.0" encoding="UTF-8"?>
<svg id="Layer_1" data-name="Layer 1" xmlns="http://www.w3.org/2000/svg" viewBox="0 0 340.16 133.23">
  <defs>
    <style>
      .cls-1 {
        fill: #ee2624;
      }

      .cls-2 {
        fill: #fff;
      }

      .cls-3 {
        fill: #231f20;
      }
    </style>
  </defs>
  <polygon class="cls-2" points="0 0 0 133.23 340.16 133.23 340.16 0 0 0 0 0"/>
  <path class="cls-1" d="m223.15,63.25s2.5,2.19,7.47,2.19c3.99,0,5.93-2.36,5.93-5.23s-2.44-4.38-4.66-5.58l-3.12-1.7c-5.03-2.73-7.17-6.11-7.17-10.34,0-7.54,5.07-12.23,12.33-12.23,5.9,0,9.37,2.01,9.37,2.01l-1.53,6.61c-1.93-1.67-4.27-2.24-6.83-2.24-3.46,0-5.46,2.19-5.46,4.95,0,2.23,1.22,3.5,3.2,4.54l3.86,2.01c6.09,3.17,8.17,6.5,8.17,11.21,0,7.68-5.5,12.43-13.82,12.43-6.16,0-9.37-1.83-9.37-1.83l1.61-6.8h0Zm-142.97-5.23l-3.63-12.67c-.52-1.78-1.09-4.56-1.09-4.56,0,0-.57,2.78-1.09,4.56l-3.6,12.67h9.4Zm12.33,13.32h-8.81l-2.12-7.52h-12.23l-2.06,7.52h-7.38l10.64-35.12c.29-.98.46-1.55.46-2.12,0-1.61-1.14-3-1.14-3h9.73l12.92,40.25h0Zm103.61-6.72l-1.6,6.72h-20.09V31.09h21.23l-1.6,6.62h-11.73v10.04h11.27l-1.55,6.48h-9.73v10.39h13.79ZM98.03,31.09h7.95v40.25h-7.95V31.09h0Zm55.51,23.14v17.11h-8.01V31.09h21.23l-1.49,6.62h-11.73v10.04h11.22l-1.49,6.48h-9.73Zm-28.79,0v17.11h-7.9V31.09h21.23l-1.49,6.62h-11.85v10.04h11.27l-1.49,6.48h-9.79Zm149.83,10.39l-1.6,6.72h-20.09V31.1h21.23l-1.55,6.6h-11.79v10.04h11.27l-1.54,6.48h-9.73v10.39h13.79Zm-69.66-33.53h7.95v40.25h-7.95V31.09h0ZM35.87,71.34h-7.95V30.7c6.41,0,10.24-.35,13.27-.35,8.24,0,14.25,3.56,14.25,12.34,0,5.28-3.2,9.41-7.9,10.67,0,0,1.2,1.44,1.95,3.1l6.92,14.87h-8.93l-7.67-16.53c-1.95-4.19-3.2-5.05-3.2-5.05.8.06,1.55.06,2.17.06,5.78,0,8.53-2.64,8.53-6.89s-3.03-6.14-7.5-6.14c-2.35,0-3.95.17-3.95.17v34.38h0Zm275.51,0h-3.2l-13.05-19.4c-2.46-3.67-4.98-7.75-4.98-7.75,0,0,.11,4.08.11,7.75v19.4h-6.64v-33.63c0-1.72-.17-2.7-.69-3.9-.74-1.61-1.89-2.72-1.89-2.72h9.27l9.39,13.68c2.52,3.62,5.21,7.86,5.21,7.86,0,0-.17-4.24-.17-7.86v-13.68h6.64v40.25h0Z"/>
  <path class="cls-3" d="m40.45,104.88l-1.81-4.81c-.44-1.18-.97-1.83-2.23-2.08,1.81-.32,3.23-1.47,3.23-3.4,0-2.79-2.37-3.72-4.77-3.72h-5.71v14.01h3.04v-5.8h1.13c1.53,0,1.85.42,2.33,1.79l1.45,4.01h3.32Zm-3.93-9.98c0,1.66-1.49,2.1-2.92,2.1h-1.41v-4.05h1.49c1.51,0,2.84.32,2.84,1.95h0Zm14.61,9.98c-.08-.71-.1-1.41-.1-2.48v-4.18c0-3.09-2.04-4.1-4.87-4.1-1.15,0-2.6.29-3.7.67l.13,1.95c.99-.59,2.12-.84,3.19-.84,1.53,0,2.46.63,2.46,2.1v.36c-.4-.02-.88-.04-1.26-.04-2.96,0-5.65.95-5.65,3.74,0,2.1,1.64,3.05,3.57,3.05,1.34,0,2.65-.74,3.36-1.87l.06,1.64h2.81Zm-2.9-4.49c0,1.55-.63,2.92-2.39,2.92-.88,0-1.74-.42-1.74-1.45,0-1.83,2.29-2,3.76-2h.38v.53h0Zm8.12-8v-2.33h-2.9v2.33h2.9Zm0,12.5v-10.54h-2.9v10.54h2.9Zm8.87-15.1c-.63-.21-1.39-.25-2.06-.25-2.67,0-3.4,1.68-3.4,3.74v1.07h-1.95v1.93h1.95v8.61h2.92v-8.61h2.25v-1.93h-2.27v-1.05c0-.63.15-1.83,1.41-1.83.34,0,.71.04,1.03.17l.13-1.85h0Zm8.03,0c-.63-.21-1.39-.25-2.06-.25-2.67,0-3.4,1.68-3.4,3.74v1.07h-1.95v1.93h1.95v8.61h2.92v-8.61h2.25v-1.93h-2.27v-1.05c0-.63.15-1.83,1.41-1.83.34,0,.71.04,1.03.17l.13-1.85h0Zm10.26,10.56v-.65c0-3.19-1.34-5.57-4.73-5.57-3.05,0-5.15,2.31-5.15,5.44,0,3.49,1.91,5.54,5.44,5.54,1.26,0,2.71-.15,3.89-.57l-.13-1.95c-.88.48-2.16.71-3.17.71-1.79,0-3.13-1.13-3.15-2.96h6.99Zm-2.65-1.55h-4.35c0-1.24.67-2.92,2.29-2.92s2.06,1.6,2.06,2.92h0Zm7.52-6.4v-2.33h-2.9v2.33h2.9Zm0,12.5v-10.54h-2.9v10.54h2.9Zm10.05-3.13c0-3.59-5.31-2.9-5.31-4.58,0-1.05,1.11-1.26,1.91-1.26.92,0,1.95.21,2.79.55l.13-1.87c-.99-.29-2.08-.48-3.11-.48-1.93,0-4.47.78-4.47,3.15,0,3.42,5.31,2.56,5.31,4.7,0,1.01-1.03,1.34-2,1.34-1.05,0-2.23-.25-3.15-.74l-.13,2.02c1.13.36,2.33.52,3.53.52,2.12,0,4.49-.9,4.49-3.36h0Zm11.13-1.41v-.65c0-3.19-1.34-5.57-4.73-5.57-3.04,0-5.15,2.31-5.15,5.44,0,3.49,1.91,5.54,5.44,5.54,1.26,0,2.71-.15,3.88-.57l-.13-1.95c-.88.48-2.16.71-3.17.71-1.79,0-3.13-1.13-3.15-2.96h6.99Zm-2.65-1.55h-4.35c0-1.24.67-2.92,2.29-2.92s2.06,1.6,2.06,2.92h0Zm14.25,6.09v-6.83c0-2.42-1.03-3.93-3.57-3.93-1.47,0-2.73.65-3.42,1.97l-.04-1.76h-2.73c.08.78.1,1.57.1,2.35v8.19h2.9v-5.82c0-1.39.46-2.86,2.1-2.86s1.76,1.26,1.76,2.52v6.15h2.9Zm12.96-5.31c0-2.81-1.18-5.44-4.37-5.44-1.32,0-2.67.71-3.19,1.95v-6.34h-2.9v15.14h2.65l.04-1.72c.65,1.32,1.89,1.95,3.34,1.95,3.23,0,4.43-2.71,4.43-5.54h0Zm-3.11,0c0,1.51-.38,3.51-2.27,3.51s-2.27-2.06-2.27-3.51.46-3.4,2.29-3.4,2.25,1.89,2.25,3.4h0Zm14.14,5.31c-.08-.71-.1-1.41-.1-2.48v-4.18c0-3.09-2.04-4.1-4.87-4.1-1.15,0-2.6.29-3.7.67l.13,1.95c.99-.59,2.12-.84,3.19-.84,1.53,0,2.46.63,2.46,2.1v.36c-.4-.02-.88-.04-1.26-.04-2.96,0-5.65.95-5.65,3.74,0,2.1,1.64,3.05,3.57,3.05,1.34,0,2.65-.74,3.36-1.87l.06,1.64h2.81Zm-2.9-4.49c0,1.55-.63,2.92-2.39,2.92-.88,0-1.74-.42-1.74-1.45,0-1.83,2.29-2,3.76-2h.38v.53h0Zm14.88,4.49v-6.83c0-2.42-1.03-3.93-3.57-3.93-1.47,0-2.73.65-3.42,1.97l-.04-1.76h-2.73c.08.78.1,1.57.1,2.35v8.19h2.9v-5.82c0-1.39.46-2.86,2.1-2.86s1.76,1.26,1.76,2.52v6.15h2.9Zm13.02,0l-4.7-5.84,4.28-4.7h-3.38l-3.82,4.33v-8.92h-2.9v15.14h2.9v-5.36l4.1,5.36h3.53Zm17.03-4.03c0-2.18-1.36-3.15-3.21-3.89l-1.51-.59c-.92-.36-2.14-.88-2.14-1.85,0-1.39,1.62-1.72,2.77-1.72,1.07,0,2.25.19,3.23.61l.1-2.31c-1.15-.32-2.33-.44-3.53-.44-2.56,0-5.69.97-5.69,4.01,0,1.91,1.24,2.92,2.9,3.61l1.43.63c1.01.44,2.5,1.01,2.5,2.08,0,1.49-1.39,1.95-2.69,1.95s-2.71-.21-3.93-.84l-.1,2.39c1.39.44,2.86.61,4.3.61,2.75,0,5.57-1.2,5.57-4.26h0Zm11.33-.5v-.65c0-3.19-1.34-5.57-4.73-5.57-3.04,0-5.14,2.31-5.14,5.44,0,3.49,1.91,5.54,5.44,5.54,1.26,0,2.71-.15,3.89-.57l-.13-1.95c-.88.48-2.16.71-3.17.71-1.79,0-3.13-1.13-3.15-2.96h6.99Zm-2.65-1.55h-4.35c0-1.24.67-2.92,2.29-2.92s2.06,1.6,2.06,2.92h0Zm13.9,1.55v-.65c0-3.19-1.34-5.57-4.73-5.57-3.04,0-5.14,2.31-5.14,5.44,0,3.49,1.91,5.54,5.44,5.54,1.26,0,2.71-.15,3.89-.57l-.13-1.95c-.88.48-2.16.71-3.17.71-1.79,0-3.13-1.13-3.15-2.96h6.99Zm-2.65-1.55h-4.35c0-1.24.67-2.92,2.29-2.92s2.06,1.6,2.06,2.92h0Zm11.08-4.58c-.27-.08-.55-.11-.84-.11-1.43,0-2.48,1.13-2.96,2.29l-.06-2.04h-2.73c.08.78.11,1.55.11,2.33v8.19h2.9v-4.7c0-1.64.65-3.51,2.6-3.51.29,0,.61.04.9.15l.08-2.6h0Zm9.39-1.83v-2.33h-2.27v2.33h2.27Zm-4.05,0v-2.33h-2.25v2.33h2.25Zm5.82,12.5c-.08-.69-.11-1.45-.11-2.35v-8.19h-2.9v5.84c0,1.36-.46,2.86-2.1,2.86s-1.74-1.22-1.74-2.5v-6.2h-2.9v6.85c0,2.41,1.01,3.93,3.55,3.93,1.53,0,2.69-.74,3.4-2.06l.06,1.83h2.73Zm10.51-.21l-.1-2.06c-.71.36-1.47.52-2.27.52-2.08,0-3.21-1.62-3.21-3.57s1.2-3.46,3.28-3.46c.76,0,1.49.21,2.16.52l.13-2.06c-.97-.29-2-.44-3-.44-3.34,0-5.67,2.04-5.67,5.44s2.14,5.54,5.59,5.54c1.05,0,2.1-.11,3.11-.44h0Zm12.41.21l-4.7-5.84,4.28-4.7h-3.38l-3.82,4.33v-8.92h-2.9v15.14h2.9v-5.36l4.1,5.36h3.53Zm9.94-4.54v-.65c0-3.19-1.34-5.57-4.73-5.57-3.05,0-5.15,2.31-5.15,5.44,0,3.49,1.91,5.54,5.44,5.54,1.26,0,2.71-.15,3.88-.57l-.13-1.95c-.88.48-2.16.71-3.17.71-1.79,0-3.13-1.13-3.15-2.96h6.99Zm-2.65-1.55h-4.35c0-1.24.67-2.92,2.29-2.92s2.06,1.6,2.06,2.92h0Zm14.25,6.09v-6.83c0-2.42-1.03-3.93-3.57-3.93-1.47,0-2.73.65-3.42,1.97l-.04-1.76h-2.73c.08.78.11,1.57.11,2.35v8.19h2.9v-5.82c0-1.39.46-2.86,2.1-2.86s1.76,1.26,1.76,2.52v6.15h2.9Z"/>
</svg>