<?xml version="1.0" encoding="utf-8"?>
<!-- Generator: Adobe Illustrator 16.0.0, SVG Export Plug-In . SVG Version: 6.00 Build 0)  -->
<!DOCTYPE svg PUBLIC "-//W3C//DTD SVG 1.1//EN" "http://www.w3.org/Graphics/SVG/1.1/DTD/svg11.dtd">
<svg version="1.1" id="Ebene_1" xmlns="http://www.w3.org/2000/svg" xmlns:xlink="http://www.w3.org/1999/xlink" x="0px" y="0px"
	 width="5823.124px" height="1488.371px" viewBox="0 0 5823.124 1488.371" enable-background="new 0 0 5823.124 1488.371"
	 xml:space="preserve">
<g>
	<defs>
		<rect id="SVGID_1_" y="0.001" width="5823.12" height="1488.37"/>
	</defs>
	<clipPath id="SVGID_2_">
		<use xlink:href="#SVGID_1_"  overflow="visible"/>
	</clipPath>
	<g clip-path="url(#SVGID_2_)">
		<defs>
			<rect id="SVGID_3_" y="0.011" width="5823.12" height="1488.36"/>
		</defs>
		<clipPath id="SVGID_4_">
			<use xlink:href="#SVGID_3_"  overflow="visible"/>
		</clipPath>
		<polyline clip-path="url(#SVGID_4_)" fill="#C3151C" points="141.654,807.181 649.946,807.181 618.698,957.165 306.226,957.165 
			282.268,1066.531 556.205,1066.531 523.916,1218.602 249.979,1218.602 227.065,1327.971 539.537,1327.971 508.292,1477.951 
			0,1477.951 141.654,807.181 		"/>
		<path clip-path="url(#SVGID_4_)" fill="#C3151C" d="M677.545,1422.221c-54.52-44.08-81.761-106.75-81.761-188
			c0-27.08,3.125-55.55,9.374-85.399c49.993-234.705,201.708-352.06,455.162-352.06c79.17,0,146.51,9.729,202.07,29.16
			l-36.45,167.701c-49.31-20.138-111.81-30.208-187.49-30.208c-61.81,0-112.844,15.1-153.109,45.306
			c-40.281,30.21-67.02,76.92-80.201,140.101c-6.25,27.069-9.375,50.689-9.375,70.819c0,36.11,10.756,62.15,32.289,78.12
			c21.516,15.98,56.929,23.96,106.24,23.96c33.333,0,66.306-4.51,98.946-13.54l20.83-97.92H920.755l26.039-120.81h296.846
			l-71.87,337.46c-32.64,18.07-71.86,32.81-117.7,44.27c-45.82,11.46-97.561,17.19-155.189,17.19
			C805.822,1488.371,732.049,1466.331,677.545,1422.221"/>
		<polyline clip-path="url(#SVGID_4_)" fill="#C3151C" points="1375.91,807.181 1571.73,807.181 1461.32,1327.971 1763.38,1327.971 
			1732.13,1477.951 1234.25,1477.951 1375.91,807.181 		"/>
		<polyline clip-path="url(#SVGID_4_)" fill="#C3151C" points="1925.86,807.181 2121.68,807.181 1980.02,1477.951 1784.2,1477.951 
			1925.86,807.181 		"/>
		<path clip-path="url(#SVGID_4_)" fill="#1D1D1B" d="M2237.95,807.181h304.14c54.16,0,95.3,11.289,123.43,33.851
			c28.12,22.568,42.18,54.677,42.18,96.345c0,12.499-1.74,28.119-5.21,46.868c-15.98,74.317-54.52,123.607-115.61,147.907
			c27.08,9.029,47.73,23.09,61.97,42.18c14.23,19.11,21.35,42.54,21.35,70.31c0,11.811-1.74,25.7-5.2,41.66
			c-15.29,65.98-42.021,114.41-80.2,145.301c-38.2,30.909-92.02,46.35-161.45,46.35h-327.06L2237.95,807.181 M2422.31,1413.371
			c45.13,0,80.2-10.06,105.2-30.2c25-20.13,42.34-53.46,52.08-99.99c3.46-17.35,5.21-31.25,5.21-41.67
			c0-25.68-9.38-44.79-28.13-57.29c-18.75-12.489-50.69-18.739-95.82-18.739h-213.52l-52.09,247.89H2422.31z M2480.64,1100.901
			c40.26,0,72.03-9.71,95.3-29.16c23.26-19.43,38.36-46.521,45.311-81.247c4.17-16.66,6.25-31.93,6.25-45.828
			c0-24.3-8.51-42.349-25.521-54.158c-17.02-11.801-46.35-17.709-88.01-17.709h-204.15l-48.95,228.103H2480.64z"/>
		<polyline clip-path="url(#SVGID_4_)" fill="#1D1D1B" points="2866.02,807.181 2951.43,807.181 2809.77,1477.951 2724.36,1477.951 
			2866.02,807.181 		"/>
		<polyline clip-path="url(#SVGID_4_)" fill="#1D1D1B" points="3072.24,807.181 3157.64,807.181 3087.859,1139.441 3471.16,807.181 
			3571.16,807.181 3264.93,1075.901 3437.82,1477.951 3346.17,1477.951 3198.27,1131.111 3064.939,1246.721 3015.99,1477.951 
			2930.58,1477.951 3072.24,807.181 		"/>
		<polyline clip-path="url(#SVGID_4_)" fill="#1D1D1B" points="3652.39,807.181 4105.47,807.181 4091.93,874.879 3724.25,874.879 
			3674.25,1109.241 4004.439,1109.241 3989.859,1175.891 3659.67,1175.891 3609.68,1411.291 3977.359,1411.291 3963.82,1477.951 
			3510.729,1477.951 3652.39,807.181 		"/>
		<path clip-path="url(#SVGID_4_)" fill="#1D1D1B" d="M4539.29,804.573c-32.3-5.21-66.511-7.812-102.601-7.812
			c-86.109,0-152.77,15.979-199.979,47.909c-47.24,31.947-76.74,77.436-88.54,136.453c-2.78,11.81-4.17,24.997-4.17,39.577
			c0,35.41,12.85,64.76,38.54,88.02c25.69,23.261,67.71,42.87,126.04,58.841c43.74,11.81,76.55,21.869,98.42,30.199
			c21.869,8.341,38.359,18.23,49.48,29.69c11.1,11.46,16.659,26.22,16.659,44.27c0,10.42-1.399,20.83-4.159,31.25
			c-9.74,41.66-30.57,70.83-62.5,87.49c-31.951,16.67-78.811,25-140.611,25c-68.06,0-130.551-11.46-187.479-34.37l-15.63,76.03
			c51.38,20.83,116.3,31.25,194.78,31.25c88.88,0,157.43-15.63,205.71-46.88c48.26-31.24,78.64-77.41,91.14-138.521
			c3.47-17.35,5.21-31.59,5.21-42.71c0-36.8-13.72-67.699-41.15-92.699c-27.439-24.99-71.709-45.82-132.799-62.49
			c-40.281-10.42-71.181-19.95-92.701-28.65c-21.529-8.67-37.33-18.38-47.39-29.16c-10.079-10.76-15.11-24.12-15.11-40.1
			c0-8.337,1.051-17.007,3.131-26.037c8.33-39.588,29.17-68.048,62.5-85.416c33.33-17.342,79.5-26.039,138.52-26.039
			c53.87,0,102.71,7.138,146.549,21.382c5.051-23.3,11.082-48.061,18.301-73.585C4583.04,812.704,4563.01,808.401,4539.29,804.573"
			/>
		<path clip-path="url(#SVGID_4_)" fill="#231F20" d="M5759.07,408.868l-25.16,104.441c-1.631,6.787-3.391,13.468-5.19,20.107
			c21.14,73.324,26.39,152.395,12.271,232.473c-49.57,281.112-318.66,469.473-599.67,419.893
			c-121.131-21.36-224.971-83.54-300.041-169.811c-29.42,2.601-57.35,7.521-83.369,14.69c87.049,116.24,216.56,201.05,370.521,228.2
			c34.619,6.109,69.06,9.05,103.06,9.05c281.659,0,532.01-202.36,582.59-489.13C5837.17,647.833,5815.07,519.193,5759.07,408.868"/>
		<path clip-path="url(#SVGID_4_)" fill="#231F20" d="M5333.99,93.14c-155.7-27.454-312.75,7.366-442.26,98.042
			c-129.49,90.676-215.931,226.353-243.391,382.045c-7.6,43.134-10.15,85.993-8.359,128.057c17.59-41.312,38.77-81.7,64.299-118.196
			c7.861-11.227,16.131-22.072,24.83-32.476c30.08-121.211,101.91-226.319,205.19-298.638
			c113.271-79.311,250.669-109.761,386.79-85.748c68.4,12.058,131.24,37.193,186.561,72.251
			c25.658-13.923,48.029-28.567,67.619-43.965C5505.568,144.539,5423.939,108.998,5333.99,93.14"/>
		<path clip-path="url(#SVGID_4_)" fill="#790000" d="M5367.721,456.011c378.319-33.212,385.25-456.01,385.25-456.01
			C5692.91,220.392,5538.68,299.939,5338.1,357.082c-170.14,48.473-334.92,64.049-490.41,155.085
			c-212.51,124.441-241.649,542.374-241.649,542.374C4689.221,569.372,4989.391,489.223,5367.721,456.011"/>
		<path clip-path="url(#SVGID_4_)" fill="#C3151C" d="M5219.49,580.349c144.039-6.959,296.5-8.486,404.578-116.713
			C5719.4,368.173,5768.57,191.33,5752.971,0.004c0,0-6.931,422.789-385.25,456.009c-378.33,33.212-678.511,113.361-761.681,598.528
			c103.51-91.852,288.45-113.759,472.849-65.05c81.932,21.649,178.512,57.07,257.58,54.08
			c149.951-5.681,192.281-73.558,242.381-238.57c-83.02,135.537-261.83,80.795-406.609,55.825
			c-144.771-24.97-298.87-49.364-409.471,45.933c82.51-99.364,208.621-106.123,329.631-93.323
			c120.998,12.791,246.77,41.551,356.18,1.467c112.148-41.087,199.67-156.543,237.38-313.139
			c-82.821,113.23-184.151,145.499-334.83,142.626c-91.601-1.746-184.04-8.748-274.72-5.107
			c-90.66,3.641-180.66,27.895-243.67,104.412C4923.92,608.034,5075.439,587.316,5219.49,580.349"/>
	</g>
</g>
</svg>
