<?xml version="1.0" encoding="utf-8"?>
<!-- Generator: Adobe Illustrator 23.0.1, SVG Export Plug-In . SVG Version: 6.00 Build 0)  -->
<svg version="1.1" id="Ebene_1" xmlns="http://www.w3.org/2000/svg" xmlns:xlink="http://www.w3.org/1999/xlink" x="0px" y="0px"
	 viewBox="0 0 338 404" style="enable-background:new 0 0 338 404;" xml:space="preserve">
<style type="text/css">
	.st0{fill-rule:evenodd;clip-rule:evenodd;}
	.st1{fill:#CB000D;}
</style>
<polyline class="st0" points="0.74,0.56 336.81,0.56 336.81,339.08 0.74,339.08 0.74,0.56 "/>
<path class="st1" d="M269.62,46.92h-0.02l-60.01,80.66V46.92V17.07v-0.04v-4.1V2.88h-81.62v11.45v2.7v0.24v29.65v80.66L69.16,46.92
	h-0.47C31.2,76.6,7.12,122.51,7.12,174.01c0,89.44,72.59,162.03,162.03,162.03c89.44,0,162.03-72.59,162.03-162.03
	C331.18,122.51,307.11,76.61,269.62,46.92z"/>
<g>
	<path d="M46.01,400.5c-3.22,1.22-9.33,2.9-15.43,2.9c-8.44,0-14.54-2.36-18.79-6.86c-4.18-4.5-6.52-11.2-6.52-18.75
		c0.07-17.07,11.25-26.83,26.41-26.83c5.97,0,10.56,1.3,12.83,2.44l-2.19,9.37c-2.54-1.3-5.62-2.21-10.7-2.21
		c-8.71,0-15.36,5.49-15.36,16.61c0,10.67,6.04,16.84,14.61,16.84c2.33,0,4.25-0.31,5.08-0.69v-10.82H28.8v-9.07h17.22V400.5z"/>
	<path d="M81.68,381.15H64.67v12.19h19v9.53H54.24V351.5h28.47v9.53H64.67v10.67h17.01V381.15z"/>
	<path d="M101.3,351.5v51.37H90.87V351.5H101.3z"/>
	<path d="M148.97,400.5c-3.22,1.22-9.33,2.9-15.43,2.9c-8.44,0-14.54-2.36-18.79-6.86c-4.18-4.5-6.52-11.2-6.52-18.75
		c0.07-17.07,11.25-26.83,26.41-26.83c5.97,0,10.56,1.3,12.83,2.44l-2.19,9.37c-2.54-1.3-5.62-2.21-10.7-2.21
		c-8.71,0-15.36,5.49-15.36,16.61c0,10.67,6.04,16.84,14.61,16.84c2.33,0,4.25-0.31,5.08-0.69v-10.82h-7.13v-9.07h17.22V400.5z"/>
	<path d="M184.64,381.15h-17.01v12.19h19v9.53H157.2V351.5h28.47v9.53h-18.04v10.67h17.01V381.15z"/>
	<path d="M194.1,390.98c2.74,1.6,7.13,3.2,11.59,3.2c4.8,0,7.34-2.21,7.34-5.64c0-3.12-2.19-5.03-7.75-7.16
		c-7.68-3.05-12.76-7.77-12.76-15.32c0-8.77,6.65-15.4,17.49-15.4c5.28,0,9.05,1.14,11.8,2.59l-2.33,9.3
		c-1.78-0.99-5.14-2.44-9.6-2.44c-4.53,0-6.72,2.36-6.72,4.95c0,3.28,2.54,4.72,8.57,7.32c8.16,3.35,11.93,8.08,11.93,15.4
		c0,8.61-5.9,15.93-18.59,15.93c-5.28,0-10.5-1.6-13.1-3.2L194.1,390.98z"/>
</g>
<g>
	<path d="M259.28,389.68l-3.22,13.18h-10.84l14.13-51.37h13.65l14.4,51.37h-11.25l-3.57-13.18H259.28z M271.01,380.99l-2.88-10.9
		c-0.75-3.05-1.58-6.94-2.26-9.91h-0.21c-0.62,3.05-1.37,6.94-2.06,9.91l-2.81,10.9H271.01z"/>
	<path d="M330.47,400.5c-3.22,1.22-9.33,2.9-15.43,2.9c-8.44,0-14.54-2.36-18.79-6.86c-4.18-4.5-6.52-11.2-6.52-18.75
		c0.07-17.07,11.25-26.83,26.41-26.83c5.97,0,10.56,1.3,12.83,2.44l-2.19,9.37c-2.54-1.3-5.62-2.21-10.7-2.21
		c-8.71,0-15.36,5.49-15.36,16.61c0,10.67,6.04,16.84,14.61,16.84c2.33,0,4.25-0.31,5.08-0.69v-10.82h-7.13v-9.07h17.22V400.5z"/>
</g>
<path d="M212.92,237.46h-73.68v30.49h72.6c-6.56,18.04-23.29,30.88-42.9,30.88c-25.32,0-45.86-21.41-45.86-47.79
	c0-26.38,20.55-47.79,45.86-47.79c16.62,0,31.19,9.23,39.24,23.04h40.41c-10.35-34.97-42.15-60.46-79.75-60.46
	c-45.99,0-83.31,38.13-83.31,85.11c0,46.98,37.32,85.11,83.31,85.11c45.98,0,83.31-38.13,83.31-85.11c0-4.59-0.36-9.09-1.05-13.48
	h-32.24H212.92z"/>
</svg>
