<svg xmlns="http://www.w3.org/2000/svg" width="335" height="80" viewBox="0 0 335 80" fill="none">
	<path
		d="M40.3718 79.8938C62.6685 79.8938 80.7436 62.0089 80.7436 39.9469C80.7436 17.8848 62.6685 0 40.3718 0C18.0751 0 0 17.8848 0 39.9469C0 62.0089 18.0751 79.8938 40.3718 79.8938Z"
		fill="#198FCF"></path>
	<path
		d="M18.7591 54.8353H27.138L32.6251 29.3839H41.1533L42.7035 22.1564L17.458 22.1436L15.8563 29.3712H24.1913L18.7591 54.8353Z"
		fill="white"></path>
	<path d="M49.3681 35.5109L40.9386 35.5024L33.9005 68.1899H42.2827L49.3681 35.5109Z"
		fill="white"></path>
	<path
		d="M76.5325 22.1704L53.0139 22.1649L51.4164 29.3924H59.7472L54.315 54.8524H62.6973L62.7016 54.8481L68.1853 29.3924L79.3175 29.3964C78.6228 26.8799 77.6858 24.4627 76.5325 22.1704Z"
		fill="white"></path>
	<path
		d="M335 1.28952H80.8503C91.0336 11.7198 96.6321 25.4068 96.6321 39.9468C96.6321 54.6574 90.9013 68.4946 80.4898 78.9696H335V1.28952Z"
		fill="#198FCF"></path>
	<path d="M125.276 20.7288H135.784L127.965 57.1851H117.452L125.276 20.7288Z" fill="white"></path>
	<path
		d="M138.696 37.593C138.82 36.9854 139.563 32.5962 139.722 31.8356H149.212L148.418 36.0251C150.96 32.7407 154.236 31.2323 158.118 31.2323C159.596 31.2323 164.439 31.4787 165.169 35.9274C168.412 31.9928 172.564 31.1728 175.214 31.1728C180.01 31.1728 181.771 33.65 182.432 35.1201C183.338 37.2913 182.681 40.3761 182.05 43.3079L179.07 57.1851H169.481L172.555 42.8533C173.114 40.2699 173.758 37.2403 169.932 37.2403C168.661 37.2403 167.132 37.6992 165.908 39.3691C165.47 39.9682 165.096 40.7798 164.628 42.9552L161.571 57.1894H151.982L155.087 42.7513C155.572 40.4781 156.263 37.2446 152.437 37.2446C149.174 37.2446 147.787 39.9257 147.177 42.7513L144.081 57.1894H134.492L138.7 37.6015L138.696 37.593Z"
		fill="white"></path>
	<path
		d="M193.515 20.7288H203.212L200.231 34.6187C201.468 33.6032 204.315 31.2875 208.953 31.2875C211.452 31.2875 213.857 31.9376 215.536 33.8624C217.597 36.1314 217 38.9102 216.244 42.4454L213.08 57.1894H203.547L206.475 43.5586C206.926 41.4341 207.815 37.2956 203.839 37.2956C200.781 37.2956 199.523 39.828 199.046 40.8308C198.539 41.9992 198.2 43.6138 197.741 45.7383L195.284 57.1936H185.696L193.515 20.7373L193.515 20.7288Z"
		fill="white"></path>
	<path
		d="M237.531 30.9815C245.844 30.9815 251.431 35.1243 249.503 44.1109C248.717 47.799 246.841 51.5339 243.62 54.164C241.043 56.2248 237.535 57.7969 232.288 57.7969C226.628 57.7969 223.248 56.433 221.256 54.062C218.894 51.279 218.993 47.4974 219.654 44.4126C221.316 36.6369 227.384 30.9815 237.531 30.9815ZM229.531 50.4759C230.239 52.3964 231.948 52.4984 232.82 52.4984C237.002 52.4984 238.776 48.003 239.536 44.4678C240.476 40.0786 240.197 36.3948 236.367 36.3948C232.137 36.3948 230.402 40.682 229.591 44.4678C229.234 46.1334 228.852 48.6106 229.526 50.4802"
		fill="white"></path>
	<path
		d="M274.967 26.9917C274.581 26.8898 273.649 26.6858 272.378 26.6858C268.457 26.6858 267.878 29.8173 267.474 31.9376H273.649L272.327 38.0986H266.156L262.059 57.1808H252.668L256.773 38.0986H251.813L253.14 31.9376H258.242C259.392 25.8828 260.634 20.58 270.682 20.58C273.271 20.58 275.229 20.7797 276.277 20.8774L274.963 26.9917H274.967Z"
		fill="white"></path>
</svg>
